<svg version="1.1" xmlns="http://www.w3.org/2000/svg" viewBox="0 0 1299.7916717529297 743" width="1299.7916717529297" height="743">
  <!-- svg-source:excalidraw -->
  
  <defs>
    <style class="style-fonts">
      @font-face {
        font-family: "Virgil";
        src: url("https://excalidraw.com/Virgil.woff2");
      }
      @font-face {
        font-family: "Cascadia";
        src: url("https://excalidraw.com/Cascadia.woff2");
      }
      @font-face {
        font-family: "Assistant";
        src: url("https://excalidraw.com/Assistant-Regular.woff2");
      }
    </style>
    
  </defs>
  <rect x="0" y="0" width="1299.7916717529297" height="743" fill="#ffffff"></rect><g stroke-linecap="round"><g transform="translate(206.97524752475226 335.83810700926324) rotate(0 2.559405940594047 26.059405940594047)"><path d="M0 0 C0 3.81, 0 7.63, 0 10.7 M0 0 C0 3.05, 0 6.09, 0 10.7 M0 10.7 C-2.11 11.95, -4.23 13.2, -10.24 16.75 M0 10.7 C-3.03 12.49, -6.05 14.28, -10.24 16.75 M-10.24 16.75 C-10.24 22, -10.24 27.26, -10.24 33.97 M-10.24 16.75 C-10.24 23.09, -10.24 29.43, -10.24 33.97 M-10.24 33.97 C-6.5 36.07, -2.75 38.16, 1.4 40.49 M-10.24 33.97 C-7.81 35.33, -5.38 36.69, 1.4 40.49 M1.4 40.49 C6.81 37.96, 12.22 35.43, 15.36 33.97 M1.4 40.49 C6.74 37.99, 12.07 35.5, 15.36 33.97 M15.36 33.97 C19.03 35.97, 22.69 37.97, 25.59 39.55 M15.36 33.97 C17.9 35.36, 20.45 36.75, 25.59 39.55 M25.59 39.55 C19.32 43.01, 13.05 46.47, 2.79 52.12 M25.59 39.55 C18.77 43.31, 11.95 47.07, 2.79 52.12 M2.79 52.12 C-2.52 49.25, -7.83 46.38, -20.48 39.55 M2.79 52.12 C-4.09 48.4, -10.98 44.68, -20.48 39.55 M-20.48 39.55 C-20.48 33.53, -20.48 27.5, -20.48 12.1 M-20.48 39.55 C-20.48 33.84, -20.48 28.12, -20.48 12.1 M-20.48 12.1 C-15.89 9.39, -11.3 6.68, 0 0 M-20.48 12.1 C-13.3 7.86, -6.13 3.62, 0 0" stroke="#000000" stroke-width="2" fill="none"></path></g></g><mask></mask><g stroke-linecap="round"><g transform="translate(212.09405940594058 334.9074139399577) rotate(0 10.702970297029708 17.915841584158414)"><path d="M0 0 C0 3.61, 0 7.23, 0 11.63 M0 0 C0 2.43, 0 4.87, 0 11.63 M0 11.63 C4.55 14.36, 9.09 17.09, 11.63 18.61 M0 11.63 C2.96 13.41, 5.92 15.19, 11.63 18.61 M11.63 18.61 C11.63 23.18, 11.63 27.75, 11.63 31.18 M11.63 18.61 C11.63 21.48, 11.63 24.35, 11.63 31.18 M11.63 31.18 C13.82 32.27, 16.01 33.37, 20.94 35.83 M11.63 31.18 C13.8 32.26, 15.98 33.35, 20.94 35.83 M20.94 35.83 C21.08 28.63, 21.23 21.42, 21.41 12.56 M20.94 35.83 C21.12 26.71, 21.31 17.58, 21.41 12.56 M21.41 12.56 C16 9.39, 10.59 6.22, 0 0 M21.41 12.56 C13.16 7.72, 4.91 2.88, 0 0" stroke="#000000" stroke-width="2" fill="none"></path></g></g><mask></mask><g stroke-linecap="round" transform="translate(178.10512481960325 329.56783358479606) rotate(0 31.894875180396753 31.86433283040725)"><path d="M0 0 C15.59 0, 31.19 0, 63.79 0 M0 0 C19.68 0, 39.37 0, 63.79 0 M63.79 0 C63.79 15.46, 63.79 30.92, 63.79 63.73 M63.79 0 C63.79 21.45, 63.79 42.89, 63.79 63.73 M63.79 63.73 C40.12 63.73, 16.45 63.73, 0 63.73 M63.79 63.73 C39.16 63.73, 14.53 63.73, 0 63.73 M0 63.73 C0 48.86, 0 33.98, 0 0 M0 63.73 C0 45.02, 0 26.32, 0 0" stroke="#000000" stroke-width="2" fill="none"></path></g><g transform="translate(176.84166717529297 396.43216641520394) rotate(0 35.150001525878906 12)"><text x="35.150001525878906" y="19.3125" font-family="Cascadia, Segoe UI Emoji" font-size="20px" fill="#000000" text-anchor="middle" style="white-space: pre;" direction="ltr" dominant-baseline="alphabetic">vendas</text></g><g stroke-linecap="round"><g transform="translate(534.9752475247524 329.83810700926324) rotate(0 2.559405940594047 26.059405940594047)"><path d="M0 0 C0 3.93, 0 7.86, 0 10.7 M0 0 C0 3.72, 0 7.45, 0 10.7 M0 10.7 C-3.37 12.69, -6.73 14.68, -10.24 16.75 M0 10.7 C-2.41 12.13, -4.82 13.55, -10.24 16.75 M-10.24 16.75 C-10.24 21.6, -10.24 26.46, -10.24 33.97 M-10.24 16.75 C-10.24 20.47, -10.24 24.18, -10.24 33.97 M-10.24 33.97 C-6.72 35.94, -3.21 37.91, 1.4 40.49 M-10.24 33.97 C-7.39 35.56, -4.55 37.16, 1.4 40.49 M1.4 40.49 C4.7 38.95, 8 37.41, 15.36 33.97 M1.4 40.49 C5.43 38.6, 9.47 36.72, 15.36 33.97 M15.36 33.97 C17.79 35.3, 20.23 36.63, 25.59 39.55 M15.36 33.97 C19.36 36.15, 23.36 38.34, 25.59 39.55 M25.59 39.55 C18.63 43.39, 11.67 47.23, 2.79 52.12 M25.59 39.55 C18.14 43.66, 10.69 47.77, 2.79 52.12 M2.79 52.12 C-2.32 49.36, -7.44 46.6, -20.48 39.55 M2.79 52.12 C-3.57 48.69, -9.93 45.25, -20.48 39.55 M-20.48 39.55 C-20.48 31.81, -20.48 24.06, -20.48 12.1 M-20.48 39.55 C-20.48 32.2, -20.48 24.84, -20.48 12.1 M-20.48 12.1 C-15.34 9.07, -10.21 6.03, 0 0 M-20.48 12.1 C-14.91 8.81, -9.34 5.52, 0 0" stroke="#000000" stroke-width="2" fill="none"></path></g></g><mask></mask><g stroke-linecap="round"><g transform="translate(540.0940594059407 328.9074139399577) rotate(0 10.702970297029708 17.915841584158414)"><path d="M0 0 C0 2.74, 0 5.48, 0 11.63 M0 0 C0 4.42, 0 8.84, 0 11.63 M0 11.63 C3.75 13.88, 7.49 16.13, 11.63 18.61 M0 11.63 C2.82 13.33, 5.64 15.02, 11.63 18.61 M11.63 18.61 C11.63 23.42, 11.63 28.22, 11.63 31.18 M11.63 18.61 C11.63 22.62, 11.63 26.63, 11.63 31.18 M11.63 31.18 C14.2 32.46, 16.76 33.74, 20.94 35.83 M11.63 31.18 C14.9 32.81, 18.17 34.44, 20.94 35.83 M20.94 35.83 C21.12 26.67, 21.31 17.52, 21.41 12.56 M20.94 35.83 C21.09 28.19, 21.25 20.54, 21.41 12.56 M21.41 12.56 C12.87 7.55, 4.34 2.55, 0 0 M21.41 12.56 C13.84 8.12, 6.27 3.68, 0 0" stroke="#000000" stroke-width="2" fill="none"></path></g></g><mask></mask><g stroke-linecap="round" transform="translate(506.10512481960313 323.56783358479606) rotate(0 31.894875180396753 31.86433283040722)"><path d="M0 0 C21.08 0, 42.16 0, 63.79 0 M0 0 C21.01 0, 42.03 0, 63.79 0 M63.79 0 C63.79 20.11, 63.79 40.23, 63.79 63.73 M63.79 0 C63.79 20.13, 63.79 40.26, 63.79 63.73 M63.79 63.73 C38.57 63.73, 13.35 63.73, 0 63.73 M63.79 63.73 C39.54 63.73, 15.29 63.73, 0 63.73 M0 63.73 C0 41.43, 0 19.12, 0 0 M0 63.73 C0 43.85, 0 23.98, 0 0" stroke="#000000" stroke-width="2" fill="none"></path></g><g transform="translate(495.2249984741211 390.43216641520394) rotate(0 46.86666488647461 12)"><text x="46.86666488647461" y="19.3125" font-family="Cascadia, Segoe UI Emoji" font-size="20px" fill="#000000" text-anchor="middle" style="white-space: pre;" direction="ltr" dominant-baseline="alphabetic">produtos</text></g><g stroke-linecap="round"><g transform="translate(875.9752475247524 329.83810700926324) rotate(0 2.5594059405941607 26.059405940594047)"><path d="M0 0 C0 2.95, 0 5.89, 0 10.7 M0 0 C0 3.76, 0 7.51, 0 10.7 M0 10.7 C-4.03 13.08, -8.06 15.47, -10.24 16.75 M0 10.7 C-3.36 12.69, -6.73 14.68, -10.24 16.75 M-10.24 16.75 C-10.24 23.62, -10.24 30.48, -10.24 33.97 M-10.24 16.75 C-10.24 22.84, -10.24 28.93, -10.24 33.97 M-10.24 33.97 C-6.05 36.32, -1.86 38.66, 1.4 40.49 M-10.24 33.97 C-6.73 35.93, -3.22 37.9, 1.4 40.49 M1.4 40.49 C5.47 38.59, 9.54 36.69, 15.36 33.97 M1.4 40.49 C5.36 38.63, 9.33 36.78, 15.36 33.97 M15.36 33.97 C18.33 35.59, 21.3 37.21, 25.59 39.55 M15.36 33.97 C18.55 35.71, 21.74 37.45, 25.59 39.55 M25.59 39.55 C19.39 42.98, 13.18 46.4, 2.79 52.12 M25.59 39.55 C17.46 44.04, 9.33 48.52, 2.79 52.12 M2.79 52.12 C-4.46 48.2, -11.72 44.28, -20.48 39.55 M2.79 52.12 C-2.2 49.42, -7.19 46.73, -20.48 39.55 M-20.48 39.55 C-20.48 29.18, -20.48 18.81, -20.48 12.1 M-20.48 39.55 C-20.48 29.47, -20.48 19.39, -20.48 12.1 M-20.48 12.1 C-14.92 8.82, -9.36 5.53, 0 0 M-20.48 12.1 C-15.44 9.12, -10.4 6.15, 0 0" stroke="#000000" stroke-width="2" fill="none"></path></g></g><mask></mask><g stroke-linecap="round"><g transform="translate(881.0940594059407 328.9074139399577) rotate(0 10.702970297029651 17.915841584158414)"><path d="M0 0 C0 4.07, 0 8.14, 0 11.63 M0 0 C0 3.63, 0 7.26, 0 11.63 M0 11.63 C2.96 13.41, 5.92 15.19, 11.63 18.61 M0 11.63 C4.5 14.33, 9 17.03, 11.63 18.61 M11.63 18.61 C11.63 21.34, 11.63 24.06, 11.63 31.18 M11.63 18.61 C11.63 21.5, 11.63 24.39, 11.63 31.18 M11.63 31.18 C14.55 32.64, 17.48 34.1, 20.94 35.83 M11.63 31.18 C14.21 32.47, 16.78 33.75, 20.94 35.83 M20.94 35.83 C21.09 28.13, 21.25 20.43, 21.41 12.56 M20.94 35.83 C21.05 30.31, 21.16 24.8, 21.41 12.56 M21.41 12.56 C15.03 8.82, 8.66 5.08, 0 0 M21.41 12.56 C13.75 8.07, 6.1 3.58, 0 0" stroke="#000000" stroke-width="2" fill="none"></path></g></g><mask></mask><g stroke-linecap="round" transform="translate(847.1051248196031 323.56783358479606) rotate(0 31.894875180396753 31.86433283040722)"><path d="M0 0 C23.5 0, 46.99 0, 63.79 0 M0 0 C17.82 0, 35.65 0, 63.79 0 M63.79 0 C63.79 13.61, 63.79 27.22, 63.79 63.73 M63.79 0 C63.79 21.21, 63.79 42.42, 63.79 63.73 M63.79 63.73 C50.99 63.73, 38.19 63.73, 0 63.73 M63.79 63.73 C48.34 63.73, 32.89 63.73, 0 63.73 M0 63.73 C0 41.25, 0 18.77, 0 0 M0 63.73 C0 46.73, 0 29.73, 0 0" stroke="#000000" stroke-width="2" fill="none"></path></g><g transform="translate(833.4333343505859 390.43216641520394) rotate(0 58.58333206176758 12)"><text x="58.58333206176758" y="19.3125" font-family="Cascadia, Segoe UI Emoji" font-size="20px" fill="#000000" text-anchor="middle" style="white-space: pre;" direction="ltr" dominant-baseline="alphabetic">financeiro</text></g><g stroke-linecap="round"><g transform="translate(1241.9752475247524 318.83810700926324) rotate(0 2.5594059405941607 26.059405940594047)"><path d="M0 0 C0 3.78, 0 7.55, 0 10.7 M0 0 C0 2.85, 0 5.71, 0 10.7 M0 10.7 C-3.72 12.9, -7.43 15.1, -10.24 16.75 M0 10.7 C-3.86 12.98, -7.71 15.26, -10.24 16.75 M-10.24 16.75 C-10.24 22.47, -10.24 28.19, -10.24 33.97 M-10.24 16.75 C-10.24 22.2, -10.24 27.65, -10.24 33.97 M-10.24 33.97 C-6.69 35.96, -3.14 37.95, 1.4 40.49 M-10.24 33.97 C-7.14 35.7, -4.04 37.44, 1.4 40.49 M1.4 40.49 C4.33 39.11, 7.27 37.74, 15.36 33.97 M1.4 40.49 C5.66 38.49, 9.93 36.5, 15.36 33.97 M15.36 33.97 C19.4 36.18, 23.45 38.39, 25.59 39.55 M15.36 33.97 C18.17 35.51, 20.99 37.04, 25.59 39.55 M25.59 39.55 C17.26 44.14, 8.93 48.73, 2.79 52.12 M25.59 39.55 C20.13 42.57, 14.66 45.58, 2.79 52.12 M2.79 52.12 C-4.66 48.09, -12.12 44.07, -20.48 39.55 M2.79 52.12 C-5.34 47.72, -13.48 43.33, -20.48 39.55 M-20.48 39.55 C-20.48 31.5, -20.48 23.45, -20.48 12.1 M-20.48 39.55 C-20.48 31.18, -20.48 22.81, -20.48 12.1 M-20.48 12.1 C-14.61 8.64, -8.75 5.17, 0 0 M-20.48 12.1 C-16.04 9.48, -11.61 6.86, 0 0" stroke="#000000" stroke-width="2" fill="none"></path></g></g><mask></mask><g stroke-linecap="round"><g transform="translate(1247.0940594059407 317.9074139399577) rotate(0 10.702970297029651 17.915841584158414)"><path d="M0 0 C0 3.43, 0 6.86, 0 11.63 M0 0 C0 2.74, 0 5.49, 0 11.63 M0 11.63 C4.46 14.31, 8.91 16.98, 11.63 18.61 M0 11.63 C4.17 14.14, 8.34 16.64, 11.63 18.61 M11.63 18.61 C11.63 22.73, 11.63 26.85, 11.63 31.18 M11.63 18.61 C11.63 23.3, 11.63 27.98, 11.63 31.18 M11.63 31.18 C14.84 32.78, 18.05 34.39, 20.94 35.83 M11.63 31.18 C14.04 32.38, 16.44 33.58, 20.94 35.83 M20.94 35.83 C21.08 28.96, 21.22 22.1, 21.41 12.56 M20.94 35.83 C21.09 28.18, 21.25 20.54, 21.41 12.56 M21.41 12.56 C16.64 9.77, 11.87 6.97, 0 0 M21.41 12.56 C15.01 8.81, 8.62 5.06, 0 0" stroke="#000000" stroke-width="2" fill="none"></path></g></g><mask></mask><g stroke-linecap="round" transform="translate(1213.1051248196031 312.56783358479606) rotate(0 31.894875180396753 31.86433283040722)"><path d="M0 0 C22.52 0, 45.04 0, 63.79 0 M0 0 C21.29 0, 42.58 0, 63.79 0 M63.79 0 C63.79 20.29, 63.79 40.58, 63.79 63.73 M63.79 0 C63.79 18.25, 63.79 36.5, 63.79 63.73 M63.79 63.73 C45.37 63.73, 26.95 63.73, 0 63.73 M63.79 63.73 C49.54 63.73, 35.3 63.73, 0 63.73 M0 63.73 C0 38.96, 0 14.19, 0 0 M0 63.73 C0 39.26, 0 14.8, 0 0" stroke="#000000" stroke-width="2" fill="none"></path></g><g transform="translate(1207.775001525879 379.43216641520394) rotate(0 41.00833511352539 12)"><text x="41.00833511352539" y="19.3125" font-family="Cascadia, Segoe UI Emoji" font-size="20px" fill="#000000" text-anchor="middle" style="white-space: pre;" direction="ltr" dominant-baseline="alphabetic">entrega</text></g><g stroke-linecap="round" transform="translate(328.45957946777344 191.3821162187312) rotate(0 32.540420532226506 32.540420532226506)"><path d="M0 0 C23.31 0, 46.61 0, 65.08 0 M0 0 C19.12 0, 38.25 0, 65.08 0 M65.08 0 C65.08 20.04, 65.08 40.09, 65.08 65.08 M65.08 0 C65.08 13.2, 65.08 26.4, 65.08 65.08 M65.08 65.08 C41.46 65.08, 17.83 65.08, 0 65.08 M65.08 65.08 C51.57 65.08, 38.06 65.08, 0 65.08 M0 65.08 C0 45.93, 0 26.77, 0 0 M0 65.08 C0 39.34, 0 13.61, 0 0" stroke="#2f9e44" stroke-width="2" fill="none"></path></g><g stroke-linecap="round" transform="translate(336.6432309358015 220.48879072213663) rotate(0 4.058960227902446 4.058960227902475)"><path d="M8.12 4.06 C8.12 4.29, 8.1 4.53, 8.06 4.76 C8.02 5, 7.95 5.23, 7.87 5.45 C7.79 5.67, 7.69 5.88, 7.57 6.09 C7.46 6.29, 7.32 6.49, 7.17 6.67 C7.02 6.85, 6.85 7.02, 6.67 7.17 C6.49 7.32, 6.29 7.46, 6.09 7.57 C5.88 7.69, 5.67 7.79, 5.45 7.87 C5.23 7.95, 5 8.02, 4.76 8.06 C4.53 8.1, 4.29 8.12, 4.06 8.12 C3.82 8.12, 3.59 8.1, 3.35 8.06 C3.12 8.02, 2.89 7.95, 2.67 7.87 C2.45 7.79, 2.23 7.69, 2.03 7.57 C1.83 7.46, 1.63 7.32, 1.45 7.17 C1.27 7.02, 1.1 6.85, 0.95 6.67 C0.8 6.49, 0.66 6.29, 0.54 6.09 C0.43 5.88, 0.33 5.67, 0.24 5.45 C0.16 5.23, 0.1 5, 0.06 4.76 C0.02 4.53, 0 4.29, 0 4.06 C0 3.82, 0.02 3.59, 0.06 3.35 C0.1 3.12, 0.16 2.89, 0.24 2.67 C0.33 2.45, 0.43 2.23, 0.54 2.03 C0.66 1.83, 0.8 1.63, 0.95 1.45 C1.1 1.27, 1.27 1.1, 1.45 0.95 C1.63 0.8, 1.83 0.66, 2.03 0.54 C2.23 0.43, 2.45 0.33, 2.67 0.24 C2.89 0.16, 3.12 0.1, 3.35 0.06 C3.59 0.02, 3.82 0, 4.06 0 C4.29 0, 4.53 0.02, 4.76 0.06 C5 0.1, 5.23 0.16, 5.45 0.24 C5.67 0.33, 5.88 0.43, 6.09 0.54 C6.29 0.66, 6.49 0.8, 6.67 0.95 C6.85 1.1, 7.02 1.27, 7.17 1.45 C7.32 1.63, 7.46 1.83, 7.57 2.03 C7.69 2.23, 7.79 2.45, 7.87 2.67 C7.95 2.89, 8.02 3.12, 8.06 3.35 C8.1 3.59, 8.11 3.94, 8.12 4.06 C8.13 4.18, 8.13 3.94, 8.12 4.06" stroke="#2f9e44" stroke-width="2" fill="none"></path></g><g stroke-linecap="round" transform="translate(377.70099798542105 220.4153556286708) rotate(0 4.058960227902446 4.058960227902475)"><path d="M8.12 4.06 C8.12 4.29, 8.1 4.53, 8.06 4.76 C8.02 5, 7.95 5.23, 7.87 5.45 C7.79 5.67, 7.69 5.88, 7.57 6.09 C7.46 6.29, 7.32 6.49, 7.17 6.67 C7.02 6.85, 6.85 7.02, 6.67 7.17 C6.49 7.32, 6.29 7.46, 6.09 7.57 C5.88 7.69, 5.67 7.79, 5.45 7.87 C5.23 7.95, 5 8.02, 4.76 8.06 C4.53 8.1, 4.29 8.12, 4.06 8.12 C3.82 8.12, 3.59 8.1, 3.35 8.06 C3.12 8.02, 2.89 7.95, 2.67 7.87 C2.45 7.79, 2.23 7.69, 2.03 7.57 C1.83 7.46, 1.63 7.32, 1.45 7.17 C1.27 7.02, 1.1 6.85, 0.95 6.67 C0.8 6.49, 0.66 6.29, 0.54 6.09 C0.43 5.88, 0.33 5.67, 0.24 5.45 C0.16 5.23, 0.1 5, 0.06 4.76 C0.02 4.53, 0 4.29, 0 4.06 C0 3.82, 0.02 3.59, 0.06 3.35 C0.1 3.12, 0.16 2.89, 0.24 2.67 C0.33 2.45, 0.43 2.23, 0.54 2.03 C0.66 1.83, 0.8 1.63, 0.95 1.45 C1.1 1.27, 1.27 1.1, 1.45 0.95 C1.63 0.8, 1.83 0.66, 2.03 0.54 C2.23 0.43, 2.45 0.33, 2.67 0.24 C2.89 0.16, 3.12 0.1, 3.35 0.06 C3.59 0.02, 3.82 0, 4.06 0 C4.29 0, 4.53 0.02, 4.76 0.06 C5 0.1, 5.23 0.16, 5.45 0.24 C5.67 0.33, 5.88 0.43, 6.09 0.54 C6.29 0.66, 6.49 0.8, 6.67 0.95 C6.85 1.1, 7.02 1.27, 7.17 1.45 C7.32 1.63, 7.46 1.83, 7.57 2.03 C7.69 2.23, 7.79 2.45, 7.87 2.67 C7.95 2.89, 8.02 3.12, 8.06 3.35 C8.1 3.59, 8.11 3.94, 8.12 4.06 C8.13 4.18, 8.13 3.94, 8.12 4.06" stroke="#2f9e44" stroke-width="2" fill="none"></path></g><g stroke-linecap="round"><g transform="translate(353.62445228184424 216.8083954676424) rotate(0 0.7141117199084874 7.450742628495675)"><path d="M0 0 C0.26 0.59, 1.19 2.25, 1.53 3.52 C1.87 4.79, 2.08 6.27, 2.04 7.61 C2 8.96, 1.75 10.38, 1.3 11.6 C0.86 12.81, -0.3 14.35, -0.62 14.9 M0 0 C0.26 0.59, 1.19 2.25, 1.53 3.52 C1.87 4.79, 2.08 6.27, 2.04 7.61 C2 8.96, 1.75 10.38, 1.3 11.6 C0.86 12.81, -0.3 14.35, -0.62 14.9" stroke="#2f9e44" stroke-width="2" fill="none"></path></g></g><mask></mask><g stroke-linecap="round"><g transform="translate(360.18594800058236 210.88123643455424) rotate(89.99999999999994 0.7141117199084874 7.450742628495675)"><path d="M0 0 C0.26 0.59, 1.19 2.25, 1.53 3.52 C1.87 4.79, 2.08 6.27, 2.04 7.61 C2 8.96, 1.75 10.38, 1.3 11.6 C0.86 12.81, -0.3 14.35, -0.62 14.9 M0 0 C0.26 0.59, 1.19 2.25, 1.53 3.52 C1.87 4.79, 2.08 6.27, 2.04 7.61 C2 8.96, 1.75 10.38, 1.3 11.6 C0.86 12.81, -0.3 14.35, -0.62 14.9" stroke="#2f9e44" stroke-width="2" fill="none"></path></g></g><mask></mask><g stroke-linecap="round"><g transform="translate(366.12035189883045 217.4000815335778) rotate(180 0.7141117199084874 7.450742628495675)"><path d="M0 0 C0.26 0.59, 1.19 2.25, 1.53 3.52 C1.87 4.79, 2.08 6.27, 2.04 7.61 C2 8.96, 1.75 10.38, 1.3 11.6 C0.86 12.81, -0.3 14.35, -0.62 14.9 M0 0 C0.26 0.59, 1.19 2.25, 1.53 3.52 C1.87 4.79, 2.08 6.27, 2.04 7.61 C2 8.96, 1.75 10.38, 1.3 11.6 C0.86 12.81, -0.3 14.35, -0.62 14.9" stroke="#2f9e44" stroke-width="2" fill="none"></path></g></g><mask></mask><g stroke-linecap="round"><g transform="translate(359.56795047286187 223.3480954527879) rotate(270 0.7141117199084874 7.450742628495675)"><path d="M0 0 C0.26 0.59, 1.19 2.25, 1.53 3.52 C1.87 4.79, 2.08 6.27, 2.04 7.61 C2 8.96, 1.75 10.38, 1.3 11.6 C0.86 12.81, -0.3 14.35, -0.62 14.9 M0 0 C0.26 0.59, 1.19 2.25, 1.53 3.52 C1.87 4.79, 2.08 6.27, 2.04 7.61 C2 8.96, 1.75 10.38, 1.3 11.6 C0.86 12.81, -0.3 14.35, -0.62 14.9" stroke="#2f9e44" stroke-width="2" fill="none"></path></g></g><mask></mask><g stroke-linecap="round"><g transform="translate(346.78790661476705 224.5625155119044) rotate(0 2.921236942186397 0.05106437702113453)"><path d="M0 0 C1.79 -0.02, 3.58 -0.03, 5.82 -0.05 M0 0 C1.18 -0.01, 2.36 -0.02, 5.82 -0.05 M5.82 -0.05 C4.89 -0.95, 3.96 -1.85, 3.25 -2.53 M5.82 -0.05 C5.28 -0.57, 4.75 -1.08, 3.25 -2.53 M3.25 -2.53 C4.02 -1.8, 4.78 -1.07, 5.84 -0.05 M3.25 -2.53 C4.28 -1.55, 5.3 -0.57, 5.84 -0.05 M5.84 -0.05 C5.08 0.68, 4.32 1.41, 3.04 2.63 M5.84 -0.05 C4.79 0.95, 3.74 1.96, 3.04 2.63" stroke="#2f9e44" stroke-width="2" fill="none"></path></g></g><mask></mask><g stroke-linecap="round"><g transform="translate(369.3817552417049 224.68538597354132) rotate(0 2.921236942186397 0.05106437702113453)"><path d="M0 0 C1.91 -0.02, 3.82 -0.04, 5.82 -0.05 M0 0 C1.89 -0.02, 3.78 -0.03, 5.82 -0.05 M5.82 -0.05 C5.15 -0.7, 4.48 -1.34, 3.25 -2.53 M5.82 -0.05 C4.88 -0.96, 3.93 -1.88, 3.25 -2.53 M3.25 -2.53 C3.81 -2, 4.36 -1.47, 5.84 -0.05 M3.25 -2.53 C4.19 -1.64, 5.12 -0.75, 5.84 -0.05 M5.84 -0.05 C5.02 0.74, 4.2 1.52, 3.04 2.63 M5.84 -0.05 C4.99 0.77, 4.13 1.59, 3.04 2.63" stroke="#2f9e44" stroke-width="2" fill="none"></path></g></g><mask></mask><g stroke-linecap="round"><g transform="translate(340.66662491899706 220.532610104656) rotate(0 20.67481640637584 -8.390257953829632)"><path d="M0 0 C0.43 -1.28, 1.18 -5.48, 2.56 -7.66 C3.94 -9.84, 6.18 -11.68, 8.27 -13.1 C10.36 -14.52, 12.82 -15.55, 15.09 -16.19 C17.37 -16.83, 19.5 -17.14, 21.94 -16.94 C24.38 -16.75, 27.5 -16.01, 29.75 -15.03 C32.01 -14.05, 33.84 -12.69, 35.48 -11.07 C37.11 -9.44, 38.6 -7.17, 39.57 -5.3 C40.55 -3.43, 41.05 -0.75, 41.35 0.16 M0 0 C0.43 -1.28, 1.18 -5.48, 2.56 -7.66 C3.94 -9.84, 6.18 -11.68, 8.27 -13.1 C10.36 -14.52, 12.82 -15.55, 15.09 -16.19 C17.37 -16.83, 19.5 -17.14, 21.94 -16.94 C24.38 -16.75, 27.5 -16.01, 29.75 -15.03 C32.01 -14.05, 33.84 -12.69, 35.48 -11.07 C37.11 -9.44, 38.6 -7.17, 39.57 -5.3 C40.55 -3.43, 41.05 -0.75, 41.35 0.16" stroke="#2f9e44" stroke-width="2" fill="none"></path></g></g><mask></mask><g stroke-linecap="round"><g transform="translate(340.41296754598534 245.22019377680704) rotate(180 20.67481640637584 -8.390257953829632)"><path d="M0 0 C0.43 -1.28, 1.18 -5.48, 2.56 -7.66 C3.94 -9.84, 6.18 -11.68, 8.27 -13.1 C10.36 -14.52, 12.82 -15.55, 15.09 -16.19 C17.37 -16.83, 19.5 -17.14, 21.94 -16.94 C24.38 -16.75, 27.5 -16.01, 29.75 -15.03 C32.01 -14.05, 33.84 -12.69, 35.48 -11.07 C37.11 -9.44, 38.6 -7.17, 39.57 -5.3 C40.55 -3.43, 41.05 -0.75, 41.35 0.16 M0 0 C0.43 -1.28, 1.18 -5.48, 2.56 -7.66 C3.94 -9.84, 6.18 -11.68, 8.27 -13.1 C10.36 -14.52, 12.82 -15.55, 15.09 -16.19 C17.37 -16.83, 19.5 -17.14, 21.94 -16.94 C24.38 -16.75, 27.5 -16.01, 29.75 -15.03 C32.01 -14.05, 33.84 -12.69, 35.48 -11.07 C37.11 -9.44, 38.6 -7.17, 39.57 -5.3 C40.55 -3.43, 41.05 -0.75, 41.35 0.16" stroke="#2f9e44" stroke-width="2" fill="none"></path></g></g><mask></mask><g transform="translate(266.49999999999955 260.6178837812688) rotate(0 99.59166717529297 12)"><text x="0" y="19.3125" font-family="Cascadia, Segoe UI Emoji" font-size="20px" fill="#2f9e44" text-anchor="start" style="white-space: pre;" direction="ltr" dominant-baseline="alphabetic">Separar o produto</text></g><g stroke-linecap="round" transform="translate(640.6595764160161 186.3821162187312) rotate(0 32.540420532226506 32.540420532226506)"><path d="M0 0 C15.75 0, 31.5 0, 65.08 0 M0 0 C22.59 0, 45.17 0, 65.08 0 M65.08 0 C65.08 25.31, 65.08 50.63, 65.08 65.08 M65.08 0 C65.08 15.49, 65.08 30.98, 65.08 65.08 M65.08 65.08 C44.59 65.08, 24.1 65.08, 0 65.08 M65.08 65.08 C42.95 65.08, 20.82 65.08, 0 65.08 M0 65.08 C0 49.66, 0 34.24, 0 0 M0 65.08 C0 44.8, 0 24.51, 0 0" stroke="#2f9e44" stroke-width="2" fill="none"></path></g><g stroke-linecap="round" transform="translate(648.8432278840442 215.48879072213663) rotate(0 4.058960227902446 4.058960227902475)"><path d="M8.12 4.06 C8.12 4.29, 8.1 4.53, 8.06 4.76 C8.02 5, 7.95 5.23, 7.87 5.45 C7.79 5.67, 7.69 5.88, 7.57 6.09 C7.46 6.29, 7.32 6.49, 7.17 6.67 C7.02 6.85, 6.85 7.02, 6.67 7.17 C6.49 7.32, 6.29 7.46, 6.09 7.57 C5.88 7.69, 5.67 7.79, 5.45 7.87 C5.23 7.95, 5 8.02, 4.76 8.06 C4.53 8.1, 4.29 8.12, 4.06 8.12 C3.82 8.12, 3.59 8.1, 3.35 8.06 C3.12 8.02, 2.89 7.95, 2.67 7.87 C2.45 7.79, 2.23 7.69, 2.03 7.57 C1.83 7.46, 1.63 7.32, 1.45 7.17 C1.27 7.02, 1.1 6.85, 0.95 6.67 C0.8 6.49, 0.66 6.29, 0.54 6.09 C0.43 5.88, 0.33 5.67, 0.24 5.45 C0.16 5.23, 0.1 5, 0.06 4.76 C0.02 4.53, 0 4.29, 0 4.06 C0 3.82, 0.02 3.59, 0.06 3.35 C0.1 3.12, 0.16 2.89, 0.24 2.67 C0.33 2.45, 0.43 2.23, 0.54 2.03 C0.66 1.83, 0.8 1.63, 0.95 1.45 C1.1 1.27, 1.27 1.1, 1.45 0.95 C1.63 0.8, 1.83 0.66, 2.03 0.54 C2.23 0.43, 2.45 0.33, 2.67 0.24 C2.89 0.16, 3.12 0.1, 3.35 0.06 C3.59 0.02, 3.82 0, 4.06 0 C4.29 0, 4.53 0.02, 4.76 0.06 C5 0.1, 5.23 0.16, 5.45 0.24 C5.67 0.33, 5.88 0.43, 6.09 0.54 C6.29 0.66, 6.49 0.8, 6.67 0.95 C6.85 1.1, 7.02 1.27, 7.17 1.45 C7.32 1.63, 7.46 1.83, 7.57 2.03 C7.69 2.23, 7.79 2.45, 7.87 2.67 C7.95 2.89, 8.02 3.12, 8.06 3.35 C8.1 3.59, 8.11 3.94, 8.12 4.06 C8.13 4.18, 8.13 3.94, 8.12 4.06" stroke="#2f9e44" stroke-width="2" fill="none"></path></g><g stroke-linecap="round" transform="translate(689.9009949336637 215.4153556286708) rotate(0 4.058960227902446 4.058960227902475)"><path d="M8.12 4.06 C8.12 4.29, 8.1 4.53, 8.06 4.76 C8.02 5, 7.95 5.23, 7.87 5.45 C7.79 5.67, 7.69 5.88, 7.57 6.09 C7.46 6.29, 7.32 6.49, 7.17 6.67 C7.02 6.85, 6.85 7.02, 6.67 7.17 C6.49 7.32, 6.29 7.46, 6.09 7.57 C5.88 7.69, 5.67 7.79, 5.45 7.87 C5.23 7.95, 5 8.02, 4.76 8.06 C4.53 8.1, 4.29 8.12, 4.06 8.12 C3.82 8.12, 3.59 8.1, 3.35 8.06 C3.12 8.02, 2.89 7.95, 2.67 7.87 C2.45 7.79, 2.23 7.69, 2.03 7.57 C1.83 7.46, 1.63 7.32, 1.45 7.17 C1.27 7.02, 1.1 6.85, 0.95 6.67 C0.8 6.49, 0.66 6.29, 0.54 6.09 C0.43 5.88, 0.33 5.67, 0.24 5.45 C0.16 5.23, 0.1 5, 0.06 4.76 C0.02 4.53, 0 4.29, 0 4.06 C0 3.82, 0.02 3.59, 0.06 3.35 C0.1 3.12, 0.16 2.89, 0.24 2.67 C0.33 2.45, 0.43 2.23, 0.54 2.03 C0.66 1.83, 0.8 1.63, 0.95 1.45 C1.1 1.27, 1.27 1.1, 1.45 0.95 C1.63 0.8, 1.83 0.66, 2.03 0.54 C2.23 0.43, 2.45 0.33, 2.67 0.24 C2.89 0.16, 3.12 0.1, 3.35 0.06 C3.59 0.02, 3.82 0, 4.06 0 C4.29 0, 4.53 0.02, 4.76 0.06 C5 0.1, 5.23 0.16, 5.45 0.24 C5.67 0.33, 5.88 0.43, 6.09 0.54 C6.29 0.66, 6.49 0.8, 6.67 0.95 C6.85 1.1, 7.02 1.27, 7.17 1.45 C7.32 1.63, 7.46 1.83, 7.57 2.03 C7.69 2.23, 7.79 2.45, 7.87 2.67 C7.95 2.89, 8.02 3.12, 8.06 3.35 C8.1 3.59, 8.11 3.94, 8.12 4.06 C8.13 4.18, 8.13 3.94, 8.12 4.06" stroke="#2f9e44" stroke-width="2" fill="none"></path></g><g stroke-linecap="round"><g transform="translate(665.8244492300869 211.8083954676424) rotate(0 0.7141117199084874 7.450742628495675)"><path d="M0 0 C0.26 0.59, 1.19 2.25, 1.53 3.52 C1.87 4.79, 2.08 6.27, 2.04 7.61 C2 8.96, 1.75 10.38, 1.3 11.6 C0.86 12.81, -0.3 14.35, -0.62 14.9 M0 0 C0.26 0.59, 1.19 2.25, 1.53 3.52 C1.87 4.79, 2.08 6.27, 2.04 7.61 C2 8.96, 1.75 10.38, 1.3 11.6 C0.86 12.81, -0.3 14.35, -0.62 14.9" stroke="#2f9e44" stroke-width="2" fill="none"></path></g></g><mask></mask><g stroke-linecap="round"><g transform="translate(672.385944948825 205.88123643455424) rotate(89.99999999999994 0.7141117199084874 7.450742628495675)"><path d="M0 0 C0.26 0.59, 1.19 2.25, 1.53 3.52 C1.87 4.79, 2.08 6.27, 2.04 7.61 C2 8.96, 1.75 10.38, 1.3 11.6 C0.86 12.81, -0.3 14.35, -0.62 14.9 M0 0 C0.26 0.59, 1.19 2.25, 1.53 3.52 C1.87 4.79, 2.08 6.27, 2.04 7.61 C2 8.96, 1.75 10.38, 1.3 11.6 C0.86 12.81, -0.3 14.35, -0.62 14.9" stroke="#2f9e44" stroke-width="2" fill="none"></path></g></g><mask></mask><g stroke-linecap="round"><g transform="translate(678.3203488470731 212.4000815335778) rotate(180 0.7141117199084874 7.450742628495675)"><path d="M0 0 C0.26 0.59, 1.19 2.25, 1.53 3.52 C1.87 4.79, 2.08 6.27, 2.04 7.61 C2 8.96, 1.75 10.38, 1.3 11.6 C0.86 12.81, -0.3 14.35, -0.62 14.9 M0 0 C0.26 0.59, 1.19 2.25, 1.53 3.52 C1.87 4.79, 2.08 6.27, 2.04 7.61 C2 8.96, 1.75 10.38, 1.3 11.6 C0.86 12.81, -0.3 14.35, -0.62 14.9" stroke="#2f9e44" stroke-width="2" fill="none"></path></g></g><mask></mask><g stroke-linecap="round"><g transform="translate(671.7679474211045 218.3480954527879) rotate(270 0.7141117199084874 7.450742628495675)"><path d="M0 0 C0.26 0.59, 1.19 2.25, 1.53 3.52 C1.87 4.79, 2.08 6.27, 2.04 7.61 C2 8.96, 1.75 10.38, 1.3 11.6 C0.86 12.81, -0.3 14.35, -0.62 14.9 M0 0 C0.26 0.59, 1.19 2.25, 1.53 3.52 C1.87 4.79, 2.08 6.27, 2.04 7.61 C2 8.96, 1.75 10.38, 1.3 11.6 C0.86 12.81, -0.3 14.35, -0.62 14.9" stroke="#2f9e44" stroke-width="2" fill="none"></path></g></g><mask></mask><g stroke-linecap="round"><g transform="translate(658.9879035630097 219.5625155119044) rotate(0 2.921236942186397 0.05106437702113453)"><path d="M0 0 C2.26 -0.02, 4.52 -0.04, 5.82 -0.05 M0 0 C1.38 -0.01, 2.77 -0.03, 5.82 -0.05 M5.82 -0.05 C5.01 -0.83, 4.2 -1.61, 3.25 -2.53 M5.82 -0.05 C4.95 -0.9, 4.07 -1.74, 3.25 -2.53 M3.25 -2.53 C3.87 -1.94, 4.48 -1.36, 5.84 -0.05 M3.25 -2.53 C4.06 -1.76, 4.87 -0.98, 5.84 -0.05 M5.84 -0.05 C4.85 0.9, 3.85 1.86, 3.04 2.63 M5.84 -0.05 C5.25 0.52, 4.66 1.08, 3.04 2.63" stroke="#2f9e44" stroke-width="2" fill="none"></path></g></g><mask></mask><g stroke-linecap="round"><g transform="translate(681.5817521899476 219.68538597354132) rotate(0 2.921236942186397 0.05106437702113453)"><path d="M0 0 C2.1 -0.02, 4.19 -0.04, 5.82 -0.05 M0 0 C2.11 -0.02, 4.22 -0.04, 5.82 -0.05 M5.82 -0.05 C4.99 -0.86, 4.16 -1.66, 3.25 -2.53 M5.82 -0.05 C4.88 -0.96, 3.95 -1.86, 3.25 -2.53 M3.25 -2.53 C3.78 -2.02, 4.31 -1.52, 5.84 -0.05 M3.25 -2.53 C4.27 -1.56, 5.28 -0.59, 5.84 -0.05 M5.84 -0.05 C5.18 0.58, 4.52 1.22, 3.04 2.63 M5.84 -0.05 C5.17 0.59, 4.5 1.24, 3.04 2.63" stroke="#2f9e44" stroke-width="2" fill="none"></path></g></g><mask></mask><g stroke-linecap="round"><g transform="translate(652.8666218672397 215.532610104656) rotate(0 20.67481640637584 -8.390257953829632)"><path d="M0 0 C0.43 -1.28, 1.18 -5.48, 2.56 -7.66 C3.94 -9.84, 6.18 -11.68, 8.27 -13.1 C10.36 -14.52, 12.82 -15.55, 15.09 -16.19 C17.37 -16.83, 19.5 -17.14, 21.94 -16.94 C24.38 -16.75, 27.5 -16.01, 29.75 -15.03 C32.01 -14.05, 33.84 -12.69, 35.48 -11.07 C37.11 -9.44, 38.6 -7.17, 39.57 -5.3 C40.55 -3.43, 41.05 -0.75, 41.35 0.16 M0 0 C0.43 -1.28, 1.18 -5.48, 2.56 -7.66 C3.94 -9.84, 6.18 -11.68, 8.27 -13.1 C10.36 -14.52, 12.82 -15.55, 15.09 -16.19 C17.37 -16.83, 19.5 -17.14, 21.94 -16.94 C24.38 -16.75, 27.5 -16.01, 29.75 -15.03 C32.01 -14.05, 33.84 -12.69, 35.48 -11.07 C37.11 -9.44, 38.6 -7.17, 39.57 -5.3 C40.55 -3.43, 41.05 -0.75, 41.35 0.16" stroke="#2f9e44" stroke-width="2" fill="none"></path></g></g><mask></mask><g stroke-linecap="round"><g transform="translate(652.612964494228 240.22019377680704) rotate(180 20.67481640637584 -8.390257953829632)"><path d="M0 0 C0.43 -1.28, 1.18 -5.48, 2.56 -7.66 C3.94 -9.84, 6.18 -11.68, 8.27 -13.1 C10.36 -14.52, 12.82 -15.55, 15.09 -16.19 C17.37 -16.83, 19.5 -17.14, 21.94 -16.94 C24.38 -16.75, 27.5 -16.01, 29.75 -15.03 C32.01 -14.05, 33.84 -12.69, 35.48 -11.07 C37.11 -9.44, 38.6 -7.17, 39.57 -5.3 C40.55 -3.43, 41.05 -0.75, 41.35 0.16 M0 0 C0.43 -1.28, 1.18 -5.48, 2.56 -7.66 C3.94 -9.84, 6.18 -11.68, 8.27 -13.1 C10.36 -14.52, 12.82 -15.55, 15.09 -16.19 C17.37 -16.83, 19.5 -17.14, 21.94 -16.94 C24.38 -16.75, 27.5 -16.01, 29.75 -15.03 C32.01 -14.05, 33.84 -12.69, 35.48 -11.07 C37.11 -9.44, 38.6 -7.17, 39.57 -5.3 C40.55 -3.43, 41.05 -0.75, 41.35 0.16" stroke="#2f9e44" stroke-width="2" fill="none"></path></g></g><mask></mask><g transform="translate(578.6999969482422 255.6178837812688) rotate(0 111.30833435058594 12)"><text x="0" y="19.3125" font-family="Cascadia, Segoe UI Emoji" font-size="20px" fill="#2f9e44" text-anchor="start" style="white-space: pre;" direction="ltr" dominant-baseline="alphabetic">Efetivar a cobrança</text></g><g stroke-linecap="round" transform="translate(1017.6595764160161 184.3821162187312) rotate(0 32.54042053222656 32.540420532226506)"><path d="M0 0 C22.34 0, 44.68 0, 65.08 0 M0 0 C22.43 0, 44.85 0, 65.08 0 M65.08 0 C65.08 19.71, 65.08 39.41, 65.08 65.08 M65.08 0 C65.08 19.55, 65.08 39.1, 65.08 65.08 M65.08 65.08 C41.31 65.08, 17.54 65.08, 0 65.08 M65.08 65.08 C48.83 65.08, 32.59 65.08, 0 65.08 M0 65.08 C0 40.23, 0 15.37, 0 0 M0 65.08 C0 40.79, 0 16.5, 0 0" stroke="#2f9e44" stroke-width="2" fill="none"></path></g><g stroke-linecap="round" transform="translate(1025.8432278840442 213.48879072213663) rotate(0 4.058960227902503 4.058960227902475)"><path d="M8.12 4.06 C8.12 4.29, 8.1 4.53, 8.06 4.76 C8.02 5, 7.95 5.23, 7.87 5.45 C7.79 5.67, 7.69 5.88, 7.57 6.09 C7.46 6.29, 7.32 6.49, 7.17 6.67 C7.02 6.85, 6.85 7.02, 6.67 7.17 C6.49 7.32, 6.29 7.46, 6.09 7.57 C5.88 7.69, 5.67 7.79, 5.45 7.87 C5.23 7.95, 5 8.02, 4.76 8.06 C4.53 8.1, 4.29 8.12, 4.06 8.12 C3.82 8.12, 3.59 8.1, 3.35 8.06 C3.12 8.02, 2.89 7.95, 2.67 7.87 C2.45 7.79, 2.23 7.69, 2.03 7.57 C1.83 7.46, 1.63 7.32, 1.45 7.17 C1.27 7.02, 1.1 6.85, 0.95 6.67 C0.8 6.49, 0.66 6.29, 0.54 6.09 C0.43 5.88, 0.33 5.67, 0.24 5.45 C0.16 5.23, 0.1 5, 0.06 4.76 C0.02 4.53, 0 4.29, 0 4.06 C0 3.82, 0.02 3.59, 0.06 3.35 C0.1 3.12, 0.16 2.89, 0.24 2.67 C0.33 2.45, 0.43 2.23, 0.54 2.03 C0.66 1.83, 0.8 1.63, 0.95 1.45 C1.1 1.27, 1.27 1.1, 1.45 0.95 C1.63 0.8, 1.83 0.66, 2.03 0.54 C2.23 0.43, 2.45 0.33, 2.67 0.24 C2.89 0.16, 3.12 0.1, 3.35 0.06 C3.59 0.02, 3.82 0, 4.06 0 C4.29 0, 4.53 0.02, 4.76 0.06 C5 0.1, 5.23 0.16, 5.45 0.24 C5.67 0.33, 5.88 0.43, 6.09 0.54 C6.29 0.66, 6.49 0.8, 6.67 0.95 C6.85 1.1, 7.02 1.27, 7.17 1.45 C7.32 1.63, 7.46 1.83, 7.57 2.03 C7.69 2.23, 7.79 2.45, 7.87 2.67 C7.95 2.89, 8.02 3.12, 8.06 3.35 C8.1 3.59, 8.11 3.94, 8.12 4.06 C8.13 4.18, 8.13 3.94, 8.12 4.06" stroke="#2f9e44" stroke-width="2" fill="none"></path></g><g stroke-linecap="round" transform="translate(1066.9009949336637 213.4153556286708) rotate(0 4.058960227902503 4.058960227902475)"><path d="M8.12 4.06 C8.12 4.29, 8.1 4.53, 8.06 4.76 C8.02 5, 7.95 5.23, 7.87 5.45 C7.79 5.67, 7.69 5.88, 7.57 6.09 C7.46 6.29, 7.32 6.49, 7.17 6.67 C7.02 6.85, 6.85 7.02, 6.67 7.17 C6.49 7.32, 6.29 7.46, 6.09 7.57 C5.88 7.69, 5.67 7.79, 5.45 7.87 C5.23 7.95, 5 8.02, 4.76 8.06 C4.53 8.1, 4.29 8.12, 4.06 8.12 C3.82 8.12, 3.59 8.1, 3.35 8.06 C3.12 8.02, 2.89 7.95, 2.67 7.87 C2.45 7.79, 2.23 7.69, 2.03 7.57 C1.83 7.46, 1.63 7.32, 1.45 7.17 C1.27 7.02, 1.1 6.85, 0.95 6.67 C0.8 6.49, 0.66 6.29, 0.54 6.09 C0.43 5.88, 0.33 5.67, 0.24 5.45 C0.16 5.23, 0.1 5, 0.06 4.76 C0.02 4.53, 0 4.29, 0 4.06 C0 3.82, 0.02 3.59, 0.06 3.35 C0.1 3.12, 0.16 2.89, 0.24 2.67 C0.33 2.45, 0.43 2.23, 0.54 2.03 C0.66 1.83, 0.8 1.63, 0.95 1.45 C1.1 1.27, 1.27 1.1, 1.45 0.95 C1.63 0.8, 1.83 0.66, 2.03 0.54 C2.23 0.43, 2.45 0.33, 2.67 0.24 C2.89 0.16, 3.12 0.1, 3.35 0.06 C3.59 0.02, 3.82 0, 4.06 0 C4.29 0, 4.53 0.02, 4.76 0.06 C5 0.1, 5.23 0.16, 5.45 0.24 C5.67 0.33, 5.88 0.43, 6.09 0.54 C6.29 0.66, 6.49 0.8, 6.67 0.95 C6.85 1.1, 7.02 1.27, 7.17 1.45 C7.32 1.63, 7.46 1.83, 7.57 2.03 C7.69 2.23, 7.79 2.45, 7.87 2.67 C7.95 2.89, 8.02 3.12, 8.06 3.35 C8.1 3.59, 8.11 3.94, 8.12 4.06 C8.13 4.18, 8.13 3.94, 8.12 4.06" stroke="#2f9e44" stroke-width="2" fill="none"></path></g><g stroke-linecap="round"><g transform="translate(1042.8244492300869 209.8083954676424) rotate(0 0.7141117199084874 7.450742628495675)"><path d="M0 0 C0.26 0.59, 1.19 2.25, 1.53 3.52 C1.87 4.79, 2.08 6.27, 2.04 7.61 C2 8.96, 1.75 10.38, 1.3 11.6 C0.86 12.81, -0.3 14.35, -0.62 14.9 M0 0 C0.26 0.59, 1.19 2.25, 1.53 3.52 C1.87 4.79, 2.08 6.27, 2.04 7.61 C2 8.96, 1.75 10.38, 1.3 11.6 C0.86 12.81, -0.3 14.35, -0.62 14.9" stroke="#2f9e44" stroke-width="2" fill="none"></path></g></g><mask></mask><g stroke-linecap="round"><g transform="translate(1049.385944948825 203.88123643455424) rotate(89.99999999999994 0.7141117199084874 7.450742628495675)"><path d="M0 0 C0.26 0.59, 1.19 2.25, 1.53 3.52 C1.87 4.79, 2.08 6.27, 2.04 7.61 C2 8.96, 1.75 10.38, 1.3 11.6 C0.86 12.81, -0.3 14.35, -0.62 14.9 M0 0 C0.26 0.59, 1.19 2.25, 1.53 3.52 C1.87 4.79, 2.08 6.27, 2.04 7.61 C2 8.96, 1.75 10.38, 1.3 11.6 C0.86 12.81, -0.3 14.35, -0.62 14.9" stroke="#2f9e44" stroke-width="2" fill="none"></path></g></g><mask></mask><g stroke-linecap="round"><g transform="translate(1055.320348847073 210.4000815335778) rotate(180 0.7141117199084874 7.450742628495675)"><path d="M0 0 C0.26 0.59, 1.19 2.25, 1.53 3.52 C1.87 4.79, 2.08 6.27, 2.04 7.61 C2 8.96, 1.75 10.38, 1.3 11.6 C0.86 12.81, -0.3 14.35, -0.62 14.9 M0 0 C0.26 0.59, 1.19 2.25, 1.53 3.52 C1.87 4.79, 2.08 6.27, 2.04 7.61 C2 8.96, 1.75 10.38, 1.3 11.6 C0.86 12.81, -0.3 14.35, -0.62 14.9" stroke="#2f9e44" stroke-width="2" fill="none"></path></g></g><mask></mask><g stroke-linecap="round"><g transform="translate(1048.7679474211045 216.3480954527879) rotate(270 0.7141117199084874 7.450742628495675)"><path d="M0 0 C0.26 0.59, 1.19 2.25, 1.53 3.52 C1.87 4.79, 2.08 6.27, 2.04 7.61 C2 8.96, 1.75 10.38, 1.3 11.6 C0.86 12.81, -0.3 14.35, -0.62 14.9 M0 0 C0.26 0.59, 1.19 2.25, 1.53 3.52 C1.87 4.79, 2.08 6.27, 2.04 7.61 C2 8.96, 1.75 10.38, 1.3 11.6 C0.86 12.81, -0.3 14.35, -0.62 14.9" stroke="#2f9e44" stroke-width="2" fill="none"></path></g></g><mask></mask><g stroke-linecap="round"><g transform="translate(1035.9879035630097 217.5625155119044) rotate(0 2.921236942186397 0.05106437702113453)"><path d="M0 0 C1.76 -0.02, 3.52 -0.03, 5.82 -0.05 M0 0 C1.75 -0.02, 3.49 -0.03, 5.82 -0.05 M5.82 -0.05 C4.88 -0.96, 3.95 -1.86, 3.25 -2.53 M5.82 -0.05 C5.18 -0.67, 4.54 -1.29, 3.25 -2.53 M3.25 -2.53 C4.24 -1.58, 5.23 -0.64, 5.84 -0.05 M3.25 -2.53 C4.22 -1.61, 5.19 -0.68, 5.84 -0.05 M5.84 -0.05 C4.79 0.96, 3.74 1.96, 3.04 2.63 M5.84 -0.05 C5.1 0.66, 4.36 1.37, 3.04 2.63" stroke="#2f9e44" stroke-width="2" fill="none"></path></g></g><mask></mask><g stroke-linecap="round"><g transform="translate(1058.5817521899476 217.68538597354132) rotate(0 2.921236942186397 0.05106437702113453)"><path d="M0 0 C1.54 -0.01, 3.07 -0.03, 5.82 -0.05 M0 0 C2.15 -0.02, 4.31 -0.04, 5.82 -0.05 M5.82 -0.05 C4.85 -0.99, 3.88 -1.93, 3.25 -2.53 M5.82 -0.05 C4.9 -0.94, 3.98 -1.83, 3.25 -2.53 M3.25 -2.53 C3.87 -1.94, 4.48 -1.35, 5.84 -0.05 M3.25 -2.53 C3.78 -2.03, 4.31 -1.52, 5.84 -0.05 M5.84 -0.05 C5.26 0.51, 4.68 1.07, 3.04 2.63 M5.84 -0.05 C4.95 0.81, 4.05 1.67, 3.04 2.63" stroke="#2f9e44" stroke-width="2" fill="none"></path></g></g><mask></mask><g stroke-linecap="round"><g transform="translate(1029.8666218672397 213.532610104656) rotate(0 20.67481640637584 -8.390257953829632)"><path d="M0 0 C0.43 -1.28, 1.18 -5.48, 2.56 -7.66 C3.94 -9.84, 6.18 -11.68, 8.27 -13.1 C10.36 -14.52, 12.82 -15.55, 15.09 -16.19 C17.37 -16.83, 19.5 -17.14, 21.94 -16.94 C24.38 -16.75, 27.5 -16.01, 29.75 -15.03 C32.01 -14.05, 33.84 -12.69, 35.48 -11.07 C37.11 -9.44, 38.6 -7.17, 39.57 -5.3 C40.55 -3.43, 41.05 -0.75, 41.35 0.16 M0 0 C0.43 -1.28, 1.18 -5.48, 2.56 -7.66 C3.94 -9.84, 6.18 -11.68, 8.27 -13.1 C10.36 -14.52, 12.82 -15.55, 15.09 -16.19 C17.37 -16.83, 19.5 -17.14, 21.94 -16.94 C24.38 -16.75, 27.5 -16.01, 29.75 -15.03 C32.01 -14.05, 33.84 -12.69, 35.48 -11.07 C37.11 -9.44, 38.6 -7.17, 39.57 -5.3 C40.55 -3.43, 41.05 -0.75, 41.35 0.16" stroke="#2f9e44" stroke-width="2" fill="none"></path></g></g><mask></mask><g stroke-linecap="round"><g transform="translate(1029.612964494228 238.22019377680704) rotate(180 20.67481640637584 -8.390257953829632)"><path d="M0 0 C0.43 -1.28, 1.18 -5.48, 2.56 -7.66 C3.94 -9.84, 6.18 -11.68, 8.27 -13.1 C10.36 -14.52, 12.82 -15.55, 15.09 -16.19 C17.37 -16.83, 19.5 -17.14, 21.94 -16.94 C24.38 -16.75, 27.5 -16.01, 29.75 -15.03 C32.01 -14.05, 33.84 -12.69, 35.48 -11.07 C37.11 -9.44, 38.6 -7.17, 39.57 -5.3 C40.55 -3.43, 41.05 -0.75, 41.35 0.16 M0 0 C0.43 -1.28, 1.18 -5.48, 2.56 -7.66 C3.94 -9.84, 6.18 -11.68, 8.27 -13.1 C10.36 -14.52, 12.82 -15.55, 15.09 -16.19 C17.37 -16.83, 19.5 -17.14, 21.94 -16.94 C24.38 -16.75, 27.5 -16.01, 29.75 -15.03 C32.01 -14.05, 33.84 -12.69, 35.48 -11.07 C37.11 -9.44, 38.6 -7.17, 39.57 -5.3 C40.55 -3.43, 41.05 -0.75, 41.35 0.16" stroke="#2f9e44" stroke-width="2" fill="none"></path></g></g><mask></mask><g transform="translate(960.6999969482422 252.6178837812688) rotate(0 99.59166717529297 12)"><text x="0" y="19.3125" font-family="Cascadia, Segoe UI Emoji" font-size="20px" fill="#2f9e44" text-anchor="start" style="white-space: pre;" direction="ltr" dominant-baseline="alphabetic">Iniciar a entrega</text></g><g stroke-linecap="round"><g transform="translate(252 369) rotate(0 56 -36.5)"><path d="M0 0 C42.21 1.37, 81.46 -0.79, 111 0 M0 0 C23.04 -0.02, 47.52 0.48, 111 0 M111 0 C112.53 -19.12, 110.88 -41.25, 112 -73 M111 0 C111.5 -22.02, 112.57 -46.3, 112 -73" stroke="#2f9e44" stroke-width="2" fill="none"></path></g><g transform="translate(252 369) rotate(0 56 -36.5)"><path d="M120.68 -49.56 C118.55 -57.1, 113.52 -67.93, 112 -73 M120.68 -49.56 C118.14 -55.31, 117.16 -59.79, 112 -73" stroke="#2f9e44" stroke-width="2" fill="none"></path></g><g transform="translate(252 369) rotate(0 56 -36.5)"><path d="M103.58 -49.46 C107.78 -57, 109.08 -67.87, 112 -73 M103.58 -49.46 C104.68 -55.13, 107.34 -59.63, 112 -73" stroke="#2f9e44" stroke-width="2" fill="none"></path></g></g><mask></mask><g stroke-linecap="round"><g transform="translate(404 220) rotate(0 69.5 45)"><path d="M0 0 C48.61 -0.79, 99.52 0.82, 139 -1 M0 0 C39.5 0.68, 80.48 0.81, 139 -1 M139 -1 C136.31 24.67, 138.99 48.67, 137 91 M139 -1 C139.62 20.71, 138.04 43.96, 137 91" stroke="#2f9e44" stroke-width="2" fill="none"></path></g><g transform="translate(404 220) rotate(0 69.5 45)"><path d="M129.1 67.28 C131.12 75.16, 135.31 85.58, 137 91 M129.1 67.28 C130.96 73.99, 134.22 81.23, 137 91" stroke="#2f9e44" stroke-width="2" fill="none"></path></g><g transform="translate(404 220) rotate(0 69.5 45)"><path d="M146.19 67.75 C142.12 75.44, 140.21 85.69, 137 91 M146.19 67.75 C143.13 74.19, 141.48 81.29, 137 91" stroke="#2f9e44" stroke-width="2" fill="none"></path></g></g><mask></mask><g stroke-linecap="round"><g transform="translate(581 361) rotate(0 52.5 -34)"><path d="M0 0 C41.01 1.76, 79.78 -1.81, 105 0 M0 0 C38.67 -0.93, 76.67 -1.87, 105 0 M105 0 C103.56 -19.01, 103.68 -41.51, 104 -68 M105 0 C104.34 -27.08, 103.99 -52.86, 104 -68" stroke="#2f9e44" stroke-width="2" fill="none"></path></g><g transform="translate(581 361) rotate(0 52.5 -34)"><path d="M112.67 -44.55 C109.77 -51.83, 104.44 -64.49, 104 -68 M112.67 -44.55 C109.94 -52.91, 106.72 -62.35, 104 -68" stroke="#2f9e44" stroke-width="2" fill="none"></path></g><g transform="translate(581 361) rotate(0 52.5 -34)"><path d="M95.57 -44.46 C99.31 -51.79, 100.61 -64.48, 104 -68 M95.57 -44.46 C99.04 -53.02, 102.02 -62.49, 104 -68" stroke="#2f9e44" stroke-width="2" fill="none"></path></g></g><mask></mask><g stroke-linecap="round"><g transform="translate(718 214) rotate(0 83 50)"><path d="M0 0 C41.86 1.02, 85.69 -2.3, 166 -1 M0 0 C36.43 -1.78, 74.07 -0.67, 166 -1 M166 -1 C167.78 33.99, 166.29 69.82, 165 101 M166 -1 C166.46 37.82, 166.21 76.55, 165 101" stroke="#2f9e44" stroke-width="2" fill="none"></path></g><g transform="translate(718 214) rotate(0 83 50)"><path d="M157.23 77.24 C157.85 84.98, 160.43 88.12, 165 101 M157.23 77.24 C158.12 81.92, 160.28 88.59, 165 101" stroke="#2f9e44" stroke-width="2" fill="none"></path></g><g transform="translate(718 214) rotate(0 83 50)"><path d="M174.32 77.8 C170.49 85.42, 168.61 88.42, 165 101 M174.32 77.8 C171.38 82.46, 169.71 89, 165 101" stroke="#2f9e44" stroke-width="2" fill="none"></path></g></g><mask></mask><g stroke-linecap="round"><g transform="translate(922 357.9954988833402) rotate(0 66 -33.49778253811613)"><path d="M0 0 C48.09 0.03, 95.21 1.14, 130.13 1 M0 0 C38.84 -0.6, 76.18 0.89, 130.13 1 M130.13 1 C131.27 -14.18, 129.11 -25.53, 132 -68 M130.13 1 C131.62 -14.34, 130.27 -28.33, 132 -68" stroke="#2f9e44" stroke-width="2" fill="none"></path></g><g transform="translate(922 357.9954988833402) rotate(0 66 -33.49778253811613)"><path d="M139.84 -44.26 C136.4 -52.92, 132.1 -61.03, 132 -68 M139.84 -44.26 C138.15 -51.97, 135.01 -57.74, 132 -68" stroke="#2f9e44" stroke-width="2" fill="none"></path></g><g transform="translate(922 357.9954988833402) rotate(0 66 -33.49778253811613)"><path d="M122.75 -44.77 C125.68 -53.3, 127.75 -61.22, 132 -68 M122.75 -44.77 C126.07 -52.35, 127.95 -57.96, 132 -68" stroke="#2f9e44" stroke-width="2" fill="none"></path></g></g><mask></mask><g stroke-linecap="round"><g transform="translate(1093 218) rotate(0 77.5 42)"><path d="M0 0 C48.84 0.07, 99.66 -2.48, 155 -1 M0 0 C30.91 -0.06, 62.84 -1.78, 155 -1 M155 -1 C155.53 17.93, 153.87 37.39, 155 85 M155 -1 C153.95 31.32, 153.7 64.09, 155 85" stroke="#2f9e44" stroke-width="2" fill="none"></path></g><g transform="translate(1093 218) rotate(0 77.5 42)"><path d="M145.62 61.83 C148.04 69.5, 152.22 74.7, 155 85 M145.62 61.83 C146.58 67.33, 148.69 70.56, 155 85" stroke="#2f9e44" stroke-width="2" fill="none"></path></g><g transform="translate(1093 218) rotate(0 77.5 42)"><path d="M162.71 61.22 C159.66 69.07, 158.37 74.46, 155 85 M162.71 61.22 C160.17 66.92, 158.78 70.27, 155 85" stroke="#2f9e44" stroke-width="2" fill="none"></path></g></g><mask></mask><g stroke-linecap="round" transform="translate(1022.3679122924809 474.3821162187312) rotate(0 32.54042053222656 32.540420532226506)"><path d="M0 0 C17.86 0, 35.72 0, 65.08 0 M0 0 C20.29 0, 40.58 0, 65.08 0 M65.08 0 C65.08 22.52, 65.08 45.03, 65.08 65.08 M65.08 0 C65.08 21.87, 65.08 43.75, 65.08 65.08 M65.08 65.08 C41.72 65.08, 18.36 65.08, 0 65.08 M65.08 65.08 C40.11 65.08, 15.14 65.08, 0 65.08 M0 65.08 C0 49.57, 0 34.05, 0 0 M0 65.08 C0 43.91, 0 22.73, 0 0" stroke="#e03131" stroke-width="2" fill="none"></path></g><g stroke-linecap="round" transform="translate(1030.551563760509 503.4887907221366) rotate(0 4.058960227902503 4.058960227902446)"><path d="M8.12 4.06 C8.12 4.29, 8.1 4.53, 8.06 4.76 C8.02 5, 7.95 5.23, 7.87 5.45 C7.79 5.67, 7.69 5.88, 7.57 6.09 C7.46 6.29, 7.32 6.49, 7.17 6.67 C7.02 6.85, 6.85 7.02, 6.67 7.17 C6.49 7.32, 6.29 7.46, 6.09 7.57 C5.88 7.69, 5.67 7.79, 5.45 7.87 C5.23 7.95, 5 8.02, 4.76 8.06 C4.53 8.1, 4.29 8.12, 4.06 8.12 C3.82 8.12, 3.59 8.1, 3.35 8.06 C3.12 8.02, 2.89 7.95, 2.67 7.87 C2.45 7.79, 2.23 7.69, 2.03 7.57 C1.83 7.46, 1.63 7.32, 1.45 7.17 C1.27 7.02, 1.1 6.85, 0.95 6.67 C0.8 6.49, 0.66 6.29, 0.54 6.09 C0.43 5.88, 0.33 5.67, 0.24 5.45 C0.16 5.23, 0.1 5, 0.06 4.76 C0.02 4.53, 0 4.29, 0 4.06 C0 3.82, 0.02 3.59, 0.06 3.35 C0.1 3.12, 0.16 2.89, 0.24 2.67 C0.33 2.45, 0.43 2.23, 0.54 2.03 C0.66 1.83, 0.8 1.63, 0.95 1.45 C1.1 1.27, 1.27 1.1, 1.45 0.95 C1.63 0.8, 1.83 0.66, 2.03 0.54 C2.23 0.43, 2.45 0.33, 2.67 0.24 C2.89 0.16, 3.12 0.1, 3.35 0.06 C3.59 0.02, 3.82 0, 4.06 0 C4.29 0, 4.53 0.02, 4.76 0.06 C5 0.1, 5.23 0.16, 5.45 0.24 C5.67 0.33, 5.88 0.43, 6.09 0.54 C6.29 0.66, 6.49 0.8, 6.67 0.95 C6.85 1.1, 7.02 1.27, 7.17 1.45 C7.32 1.63, 7.46 1.83, 7.57 2.03 C7.69 2.23, 7.79 2.45, 7.87 2.67 C7.95 2.89, 8.02 3.12, 8.06 3.35 C8.1 3.59, 8.11 3.94, 8.12 4.06 C8.13 4.18, 8.13 3.94, 8.12 4.06" stroke="#e03131" stroke-width="2" fill="none"></path></g><g stroke-linecap="round" transform="translate(1071.6093308101285 503.4153556286708) rotate(0 4.058960227902503 4.058960227902446)"><path d="M8.12 4.06 C8.12 4.29, 8.1 4.53, 8.06 4.76 C8.02 5, 7.95 5.23, 7.87 5.45 C7.79 5.67, 7.69 5.88, 7.57 6.09 C7.46 6.29, 7.32 6.49, 7.17 6.67 C7.02 6.85, 6.85 7.02, 6.67 7.17 C6.49 7.32, 6.29 7.46, 6.09 7.57 C5.88 7.69, 5.67 7.79, 5.45 7.87 C5.23 7.95, 5 8.02, 4.76 8.06 C4.53 8.1, 4.29 8.12, 4.06 8.12 C3.82 8.12, 3.59 8.1, 3.35 8.06 C3.12 8.02, 2.89 7.95, 2.67 7.87 C2.45 7.79, 2.23 7.69, 2.03 7.57 C1.83 7.46, 1.63 7.32, 1.45 7.17 C1.27 7.02, 1.1 6.85, 0.95 6.67 C0.8 6.49, 0.66 6.29, 0.54 6.09 C0.43 5.88, 0.33 5.67, 0.24 5.45 C0.16 5.23, 0.1 5, 0.06 4.76 C0.02 4.53, 0 4.29, 0 4.06 C0 3.82, 0.02 3.59, 0.06 3.35 C0.1 3.12, 0.16 2.89, 0.24 2.67 C0.33 2.45, 0.43 2.23, 0.54 2.03 C0.66 1.83, 0.8 1.63, 0.95 1.45 C1.1 1.27, 1.27 1.1, 1.45 0.95 C1.63 0.8, 1.83 0.66, 2.03 0.54 C2.23 0.43, 2.45 0.33, 2.67 0.24 C2.89 0.16, 3.12 0.1, 3.35 0.06 C3.59 0.02, 3.82 0, 4.06 0 C4.29 0, 4.53 0.02, 4.76 0.06 C5 0.1, 5.23 0.16, 5.45 0.24 C5.67 0.33, 5.88 0.43, 6.09 0.54 C6.29 0.66, 6.49 0.8, 6.67 0.95 C6.85 1.1, 7.02 1.27, 7.17 1.45 C7.32 1.63, 7.46 1.83, 7.57 2.03 C7.69 2.23, 7.79 2.45, 7.87 2.67 C7.95 2.89, 8.02 3.12, 8.06 3.35 C8.1 3.59, 8.11 3.94, 8.12 4.06 C8.13 4.18, 8.13 3.94, 8.12 4.06" stroke="#e03131" stroke-width="2" fill="none"></path></g><g stroke-linecap="round"><g transform="translate(1047.5327851065517 499.8083954676424) rotate(0 0.7141117199084874 7.450742628495675)"><path d="M0 0 C0.26 0.59, 1.19 2.25, 1.53 3.52 C1.87 4.79, 2.08 6.27, 2.04 7.61 C2 8.96, 1.75 10.38, 1.3 11.6 C0.86 12.81, -0.3 14.35, -0.62 14.9 M0 0 C0.26 0.59, 1.19 2.25, 1.53 3.52 C1.87 4.79, 2.08 6.27, 2.04 7.61 C2 8.96, 1.75 10.38, 1.3 11.6 C0.86 12.81, -0.3 14.35, -0.62 14.9" stroke="#e03131" stroke-width="2" fill="none"></path></g></g><mask></mask><g stroke-linecap="round"><g transform="translate(1054.0942808252898 493.88123643455424) rotate(89.99999999999994 0.7141117199084874 7.450742628495675)"><path d="M0 0 C0.26 0.59, 1.19 2.25, 1.53 3.52 C1.87 4.79, 2.08 6.27, 2.04 7.61 C2 8.96, 1.75 10.38, 1.3 11.6 C0.86 12.81, -0.3 14.35, -0.62 14.9 M0 0 C0.26 0.59, 1.19 2.25, 1.53 3.52 C1.87 4.79, 2.08 6.27, 2.04 7.61 C2 8.96, 1.75 10.38, 1.3 11.6 C0.86 12.81, -0.3 14.35, -0.62 14.9" stroke="#e03131" stroke-width="2" fill="none"></path></g></g><mask></mask><g stroke-linecap="round"><g transform="translate(1060.028684723538 500.4000815335778) rotate(180 0.7141117199084874 7.450742628495675)"><path d="M0 0 C0.26 0.59, 1.19 2.25, 1.53 3.52 C1.87 4.79, 2.08 6.27, 2.04 7.61 C2 8.96, 1.75 10.38, 1.3 11.6 C0.86 12.81, -0.3 14.35, -0.62 14.9 M0 0 C0.26 0.59, 1.19 2.25, 1.53 3.52 C1.87 4.79, 2.08 6.27, 2.04 7.61 C2 8.96, 1.75 10.38, 1.3 11.6 C0.86 12.81, -0.3 14.35, -0.62 14.9" stroke="#e03131" stroke-width="2" fill="none"></path></g></g><mask></mask><g stroke-linecap="round"><g transform="translate(1053.4762832975694 506.3480954527879) rotate(270 0.7141117199084874 7.450742628495675)"><path d="M0 0 C0.26 0.59, 1.19 2.25, 1.53 3.52 C1.87 4.79, 2.08 6.27, 2.04 7.61 C2 8.96, 1.75 10.38, 1.3 11.6 C0.86 12.81, -0.3 14.35, -0.62 14.9 M0 0 C0.26 0.59, 1.19 2.25, 1.53 3.52 C1.87 4.79, 2.08 6.27, 2.04 7.61 C2 8.96, 1.75 10.38, 1.3 11.6 C0.86 12.81, -0.3 14.35, -0.62 14.9" stroke="#e03131" stroke-width="2" fill="none"></path></g></g><mask></mask><g stroke-linecap="round"><g transform="translate(1040.6962394394745 507.5625155119044) rotate(0 2.921236942186397 0.051064377021191376)"><path d="M0 0 C2.01 -0.02, 4.02 -0.04, 5.82 -0.05 M0 0 C1.95 -0.02, 3.91 -0.04, 5.82 -0.05 M5.82 -0.05 C4.9 -0.94, 3.98 -1.83, 3.25 -2.53 M5.82 -0.05 C4.83 -1, 3.85 -1.96, 3.25 -2.53 M3.25 -2.53 C3.87 -1.94, 4.49 -1.35, 5.84 -0.05 M3.25 -2.53 C4.1 -1.72, 4.94 -0.92, 5.84 -0.05 M5.84 -0.05 C5.19 0.58, 4.53 1.2, 3.04 2.63 M5.84 -0.05 C5.21 0.56, 4.57 1.17, 3.04 2.63" stroke="#e03131" stroke-width="2" fill="none"></path></g></g><mask></mask><g stroke-linecap="round"><g transform="translate(1063.2900880664124 507.6853859735413) rotate(0 2.921236942186397 0.051064377021191376)"><path d="M0 0 C1.89 -0.02, 3.77 -0.03, 5.82 -0.05 M0 0 C1.21 -0.01, 2.41 -0.02, 5.82 -0.05 M5.82 -0.05 C4.87 -0.97, 3.92 -1.89, 3.25 -2.53 M5.82 -0.05 C4.95 -0.89, 4.09 -1.73, 3.25 -2.53 M3.25 -2.53 C4.01 -1.81, 4.77 -1.08, 5.84 -0.05 M3.25 -2.53 C3.84 -1.97, 4.43 -1.41, 5.84 -0.05 M5.84 -0.05 C4.86 0.89, 3.87 1.83, 3.04 2.63 M5.84 -0.05 C5.11 0.65, 4.37 1.35, 3.04 2.63" stroke="#e03131" stroke-width="2" fill="none"></path></g></g><mask></mask><g stroke-linecap="round"><g transform="translate(1034.5749577437045 503.532610104656) rotate(0 20.67481640637584 -8.390257953829575)"><path d="M0 0 C0.43 -1.28, 1.18 -5.48, 2.56 -7.66 C3.94 -9.84, 6.18 -11.68, 8.27 -13.1 C10.36 -14.52, 12.82 -15.55, 15.09 -16.19 C17.37 -16.83, 19.5 -17.14, 21.94 -16.94 C24.38 -16.75, 27.5 -16.01, 29.75 -15.03 C32.01 -14.05, 33.84 -12.69, 35.48 -11.07 C37.11 -9.44, 38.6 -7.17, 39.57 -5.3 C40.55 -3.43, 41.05 -0.75, 41.35 0.16 M0 0 C0.43 -1.28, 1.18 -5.48, 2.56 -7.66 C3.94 -9.84, 6.18 -11.68, 8.27 -13.1 C10.36 -14.52, 12.82 -15.55, 15.09 -16.19 C17.37 -16.83, 19.5 -17.14, 21.94 -16.94 C24.38 -16.75, 27.5 -16.01, 29.75 -15.03 C32.01 -14.05, 33.84 -12.69, 35.48 -11.07 C37.11 -9.44, 38.6 -7.17, 39.57 -5.3 C40.55 -3.43, 41.05 -0.75, 41.35 0.16" stroke="#e03131" stroke-width="2" fill="none"></path></g></g><mask></mask><g stroke-linecap="round"><g transform="translate(1034.3213003706928 528.220193776807) rotate(180 20.67481640637584 -8.390257953829575)"><path d="M0 0 C0.43 -1.28, 1.18 -5.48, 2.56 -7.66 C3.94 -9.84, 6.18 -11.68, 8.27 -13.1 C10.36 -14.52, 12.82 -15.55, 15.09 -16.19 C17.37 -16.83, 19.5 -17.14, 21.94 -16.94 C24.38 -16.75, 27.5 -16.01, 29.75 -15.03 C32.01 -14.05, 33.84 -12.69, 35.48 -11.07 C37.11 -9.44, 38.6 -7.17, 39.57 -5.3 C40.55 -3.43, 41.05 -0.75, 41.35 0.16 M0 0 C0.43 -1.28, 1.18 -5.48, 2.56 -7.66 C3.94 -9.84, 6.18 -11.68, 8.27 -13.1 C10.36 -14.52, 12.82 -15.55, 15.09 -16.19 C17.37 -16.83, 19.5 -17.14, 21.94 -16.94 C24.38 -16.75, 27.5 -16.01, 29.75 -15.03 C32.01 -14.05, 33.84 -12.69, 35.48 -11.07 C37.11 -9.44, 38.6 -7.17, 39.57 -5.3 C40.55 -3.43, 41.05 -0.75, 41.35 0.16" stroke="#e03131" stroke-width="2" fill="none"></path></g></g><mask></mask><g transform="translate(943.408332824707 543.6178837812688) rotate(0 111.30833435058594 12)"><text x="0" y="19.3125" font-family="Cascadia, Segoe UI Emoji" font-size="20px" fill="#e03131" text-anchor="start" style="white-space: pre;" direction="ltr" dominant-baseline="alphabetic">Devolver o dinheiro</text></g><g stroke-linecap="round"><g transform="translate(1246.0552428847343 413) rotate(0 -72.04389785037006 49)"><path d="M0 0 C0.86 20.54, 3.04 45.72, 1.97 98 M0 0 C1.02 31.81, 1.7 65.56, 1.97 98 M1.97 98 C-34.95 95.22, -74.29 98.16, -146.06 97.07 M1.97 98 C-27.64 97.17, -58.03 97.88, -146.06 97.07" stroke="#e03131" stroke-width="2" fill="none"></path></g><g transform="translate(1246.0552428847343 413) rotate(0 -72.04389785037006 49)"><path d="M-122.51 88.66 C-128.14 89.18, -131.68 94.29, -146.06 97.07 M-122.51 88.66 C-129.67 90.43, -137.52 94.23, -146.06 97.07" stroke="#e03131" stroke-width="2" fill="none"></path></g><g transform="translate(1246.0552428847343 413) rotate(0 -72.04389785037006 49)"><path d="M-122.62 105.76 C-128.37 102.45, -131.88 103.73, -146.06 97.07 M-122.62 105.76 C-129.68 101.82, -137.49 99.9, -146.06 97.07" stroke="#e03131" stroke-width="2" fill="none"></path></g></g><mask></mask><g stroke-linecap="round"><g transform="translate(1013 511) rotate(0 -66 -42.5)"><path d="M0 0 C-47.17 -0.63, -95.56 -2.34, -132 -1 M0 0 C-52.41 0.21, -104.21 0.13, -132 -1 M-132 -1 C-131.81 -19.48, -130.12 -39.5, -132 -85 M-132 -1 C-132.3 -32.33, -132.46 -62.77, -132 -85" stroke="#e03131" stroke-width="2" fill="none"></path></g><g transform="translate(1013 511) rotate(0 -66 -42.5)"><path d="M-123.73 -61.41 C-125.62 -69.46, -128.85 -79.42, -132 -85 M-123.73 -61.41 C-126.9 -70.48, -129.6 -79.52, -132 -85" stroke="#e03131" stroke-width="2" fill="none"></path></g><g transform="translate(1013 511) rotate(0 -66 -42.5)"><path d="M-140.83 -61.61 C-136.48 -69.48, -133.47 -79.36, -132 -85 M-140.83 -61.61 C-137.22 -70.65, -133.13 -79.61, -132 -85" stroke="#e03131" stroke-width="2" fill="none"></path></g></g><mask></mask><g stroke-linecap="round" transform="translate(684.651245117188 501.3821162187312) rotate(0 32.540420532226506 32.540420532226506)"><path d="M0 0 C16.93 0, 33.86 0, 65.08 0 M0 0 C19.08 0, 38.17 0, 65.08 0 M65.08 0 C65.08 13.26, 65.08 26.52, 65.08 65.08 M65.08 0 C65.08 24.77, 65.08 49.54, 65.08 65.08 M65.08 65.08 C42.7 65.08, 20.32 65.08, 0 65.08 M65.08 65.08 C51.69 65.08, 38.3 65.08, 0 65.08 M0 65.08 C0 45.51, 0 25.94, 0 0 M0 65.08 C0 43.88, 0 22.67, 0 0" stroke="#e03131" stroke-width="2" fill="none"></path></g><g stroke-linecap="round" transform="translate(692.834896585216 530.4887907221366) rotate(0 4.058960227902446 4.058960227902446)"><path d="M8.12 4.06 C8.12 4.29, 8.1 4.53, 8.06 4.76 C8.02 5, 7.95 5.23, 7.87 5.45 C7.79 5.67, 7.69 5.88, 7.57 6.09 C7.46 6.29, 7.32 6.49, 7.17 6.67 C7.02 6.85, 6.85 7.02, 6.67 7.17 C6.49 7.32, 6.29 7.46, 6.09 7.57 C5.88 7.69, 5.67 7.79, 5.45 7.87 C5.23 7.95, 5 8.02, 4.76 8.06 C4.53 8.1, 4.29 8.12, 4.06 8.12 C3.82 8.12, 3.59 8.1, 3.35 8.06 C3.12 8.02, 2.89 7.95, 2.67 7.87 C2.45 7.79, 2.23 7.69, 2.03 7.57 C1.83 7.46, 1.63 7.32, 1.45 7.17 C1.27 7.02, 1.1 6.85, 0.95 6.67 C0.8 6.49, 0.66 6.29, 0.54 6.09 C0.43 5.88, 0.33 5.67, 0.24 5.45 C0.16 5.23, 0.1 5, 0.06 4.76 C0.02 4.53, 0 4.29, 0 4.06 C0 3.82, 0.02 3.59, 0.06 3.35 C0.1 3.12, 0.16 2.89, 0.24 2.67 C0.33 2.45, 0.43 2.23, 0.54 2.03 C0.66 1.83, 0.8 1.63, 0.95 1.45 C1.1 1.27, 1.27 1.1, 1.45 0.95 C1.63 0.8, 1.83 0.66, 2.03 0.54 C2.23 0.43, 2.45 0.33, 2.67 0.24 C2.89 0.16, 3.12 0.1, 3.35 0.06 C3.59 0.02, 3.82 0, 4.06 0 C4.29 0, 4.53 0.02, 4.76 0.06 C5 0.1, 5.23 0.16, 5.45 0.24 C5.67 0.33, 5.88 0.43, 6.09 0.54 C6.29 0.66, 6.49 0.8, 6.67 0.95 C6.85 1.1, 7.02 1.27, 7.17 1.45 C7.32 1.63, 7.46 1.83, 7.57 2.03 C7.69 2.23, 7.79 2.45, 7.87 2.67 C7.95 2.89, 8.02 3.12, 8.06 3.35 C8.1 3.59, 8.11 3.94, 8.12 4.06 C8.13 4.18, 8.13 3.94, 8.12 4.06" stroke="#e03131" stroke-width="2" fill="none"></path></g><g stroke-linecap="round" transform="translate(733.8926636348356 530.4153556286708) rotate(0 4.058960227902446 4.058960227902446)"><path d="M8.12 4.06 C8.12 4.29, 8.1 4.53, 8.06 4.76 C8.02 5, 7.95 5.23, 7.87 5.45 C7.79 5.67, 7.69 5.88, 7.57 6.09 C7.46 6.29, 7.32 6.49, 7.17 6.67 C7.02 6.85, 6.85 7.02, 6.67 7.17 C6.49 7.32, 6.29 7.46, 6.09 7.57 C5.88 7.69, 5.67 7.79, 5.45 7.87 C5.23 7.95, 5 8.02, 4.76 8.06 C4.53 8.1, 4.29 8.12, 4.06 8.12 C3.82 8.12, 3.59 8.1, 3.35 8.06 C3.12 8.02, 2.89 7.95, 2.67 7.87 C2.45 7.79, 2.23 7.69, 2.03 7.57 C1.83 7.46, 1.63 7.32, 1.45 7.17 C1.27 7.02, 1.1 6.85, 0.95 6.67 C0.8 6.49, 0.66 6.29, 0.54 6.09 C0.43 5.88, 0.33 5.67, 0.24 5.45 C0.16 5.23, 0.1 5, 0.06 4.76 C0.02 4.53, 0 4.29, 0 4.06 C0 3.82, 0.02 3.59, 0.06 3.35 C0.1 3.12, 0.16 2.89, 0.24 2.67 C0.33 2.45, 0.43 2.23, 0.54 2.03 C0.66 1.83, 0.8 1.63, 0.95 1.45 C1.1 1.27, 1.27 1.1, 1.45 0.95 C1.63 0.8, 1.83 0.66, 2.03 0.54 C2.23 0.43, 2.45 0.33, 2.67 0.24 C2.89 0.16, 3.12 0.1, 3.35 0.06 C3.59 0.02, 3.82 0, 4.06 0 C4.29 0, 4.53 0.02, 4.76 0.06 C5 0.1, 5.23 0.16, 5.45 0.24 C5.67 0.33, 5.88 0.43, 6.09 0.54 C6.29 0.66, 6.49 0.8, 6.67 0.95 C6.85 1.1, 7.02 1.27, 7.17 1.45 C7.32 1.63, 7.46 1.83, 7.57 2.03 C7.69 2.23, 7.79 2.45, 7.87 2.67 C7.95 2.89, 8.02 3.12, 8.06 3.35 C8.1 3.59, 8.11 3.94, 8.12 4.06 C8.13 4.18, 8.13 3.94, 8.12 4.06" stroke="#e03131" stroke-width="2" fill="none"></path></g><g stroke-linecap="round"><g transform="translate(709.8161179312588 526.8083954676424) rotate(0 0.7141117199084874 7.450742628495675)"><path d="M0 0 C0.26 0.59, 1.19 2.25, 1.53 3.52 C1.87 4.79, 2.08 6.27, 2.04 7.61 C2 8.96, 1.75 10.38, 1.3 11.6 C0.86 12.81, -0.3 14.35, -0.62 14.9 M0 0 C0.26 0.59, 1.19 2.25, 1.53 3.52 C1.87 4.79, 2.08 6.27, 2.04 7.61 C2 8.96, 1.75 10.38, 1.3 11.6 C0.86 12.81, -0.3 14.35, -0.62 14.9" stroke="#e03131" stroke-width="2" fill="none"></path></g></g><mask></mask><g stroke-linecap="round"><g transform="translate(716.3776136499969 520.8812364345542) rotate(89.99999999999994 0.7141117199084874 7.450742628495675)"><path d="M0 0 C0.26 0.59, 1.19 2.25, 1.53 3.52 C1.87 4.79, 2.08 6.27, 2.04 7.61 C2 8.96, 1.75 10.38, 1.3 11.6 C0.86 12.81, -0.3 14.35, -0.62 14.9 M0 0 C0.26 0.59, 1.19 2.25, 1.53 3.52 C1.87 4.79, 2.08 6.27, 2.04 7.61 C2 8.96, 1.75 10.38, 1.3 11.6 C0.86 12.81, -0.3 14.35, -0.62 14.9" stroke="#e03131" stroke-width="2" fill="none"></path></g></g><mask></mask><g stroke-linecap="round"><g transform="translate(722.312017548245 527.4000815335778) rotate(180 0.7141117199084874 7.450742628495675)"><path d="M0 0 C0.26 0.59, 1.19 2.25, 1.53 3.52 C1.87 4.79, 2.08 6.27, 2.04 7.61 C2 8.96, 1.75 10.38, 1.3 11.6 C0.86 12.81, -0.3 14.35, -0.62 14.9 M0 0 C0.26 0.59, 1.19 2.25, 1.53 3.52 C1.87 4.79, 2.08 6.27, 2.04 7.61 C2 8.96, 1.75 10.38, 1.3 11.6 C0.86 12.81, -0.3 14.35, -0.62 14.9" stroke="#e03131" stroke-width="2" fill="none"></path></g></g><mask></mask><g stroke-linecap="round"><g transform="translate(715.7596161222764 533.3480954527879) rotate(270 0.7141117199084874 7.450742628495675)"><path d="M0 0 C0.26 0.59, 1.19 2.25, 1.53 3.52 C1.87 4.79, 2.08 6.27, 2.04 7.61 C2 8.96, 1.75 10.38, 1.3 11.6 C0.86 12.81, -0.3 14.35, -0.62 14.9 M0 0 C0.26 0.59, 1.19 2.25, 1.53 3.52 C1.87 4.79, 2.08 6.27, 2.04 7.61 C2 8.96, 1.75 10.38, 1.3 11.6 C0.86 12.81, -0.3 14.35, -0.62 14.9" stroke="#e03131" stroke-width="2" fill="none"></path></g></g><mask></mask><g stroke-linecap="round"><g transform="translate(702.9795722641816 534.5625155119044) rotate(0 2.921236942186397 0.051064377021191376)"><path d="M0 0 C1.18 -0.01, 2.37 -0.02, 5.82 -0.05 M0 0 C2.21 -0.02, 4.43 -0.04, 5.82 -0.05 M5.82 -0.05 C4.94 -0.91, 4.05 -1.76, 3.25 -2.53 M5.82 -0.05 C5.29 -0.56, 4.76 -1.07, 3.25 -2.53 M3.25 -2.53 C4.03 -1.79, 4.81 -1.04, 5.84 -0.05 M3.25 -2.53 C4.1 -1.72, 4.94 -0.91, 5.84 -0.05 M5.84 -0.05 C4.84 0.91, 3.85 1.86, 3.04 2.63 M5.84 -0.05 C4.84 0.91, 3.85 1.86, 3.04 2.63" stroke="#e03131" stroke-width="2" fill="none"></path></g></g><mask></mask><g stroke-linecap="round"><g transform="translate(725.5734208911194 534.6853859735413) rotate(0 2.921236942186397 0.051064377021191376)"><path d="M0 0 C1.72 -0.02, 3.43 -0.03, 5.82 -0.05 M0 0 C2.07 -0.02, 4.15 -0.04, 5.82 -0.05 M5.82 -0.05 C5.12 -0.73, 4.41 -1.41, 3.25 -2.53 M5.82 -0.05 C5.06 -0.78, 4.31 -1.51, 3.25 -2.53 M3.25 -2.53 C4.03 -1.79, 4.81 -1.04, 5.84 -0.05 M3.25 -2.53 C4.13 -1.69, 5.01 -0.85, 5.84 -0.05 M5.84 -0.05 C5.21 0.56, 4.57 1.17, 3.04 2.63 M5.84 -0.05 C5.1 0.66, 4.35 1.37, 3.04 2.63" stroke="#e03131" stroke-width="2" fill="none"></path></g></g><mask></mask><g stroke-linecap="round"><g transform="translate(696.8582905684116 530.532610104656) rotate(0 20.67481640637584 -8.390257953829575)"><path d="M0 0 C0.43 -1.28, 1.18 -5.48, 2.56 -7.66 C3.94 -9.84, 6.18 -11.68, 8.27 -13.1 C10.36 -14.52, 12.82 -15.55, 15.09 -16.19 C17.37 -16.83, 19.5 -17.14, 21.94 -16.94 C24.38 -16.75, 27.5 -16.01, 29.75 -15.03 C32.01 -14.05, 33.84 -12.69, 35.48 -11.07 C37.11 -9.44, 38.6 -7.17, 39.57 -5.3 C40.55 -3.43, 41.05 -0.75, 41.35 0.16 M0 0 C0.43 -1.28, 1.18 -5.48, 2.56 -7.66 C3.94 -9.84, 6.18 -11.68, 8.27 -13.1 C10.36 -14.52, 12.82 -15.55, 15.09 -16.19 C17.37 -16.83, 19.5 -17.14, 21.94 -16.94 C24.38 -16.75, 27.5 -16.01, 29.75 -15.03 C32.01 -14.05, 33.84 -12.69, 35.48 -11.07 C37.11 -9.44, 38.6 -7.17, 39.57 -5.3 C40.55 -3.43, 41.05 -0.75, 41.35 0.16" stroke="#e03131" stroke-width="2" fill="none"></path></g></g><mask></mask><g stroke-linecap="round"><g transform="translate(696.6046331953999 555.220193776807) rotate(180 20.67481640637584 -8.390257953829575)"><path d="M0 0 C0.43 -1.28, 1.18 -5.48, 2.56 -7.66 C3.94 -9.84, 6.18 -11.68, 8.27 -13.1 C10.36 -14.52, 12.82 -15.55, 15.09 -16.19 C17.37 -16.83, 19.5 -17.14, 21.94 -16.94 C24.38 -16.75, 27.5 -16.01, 29.75 -15.03 C32.01 -14.05, 33.84 -12.69, 35.48 -11.07 C37.11 -9.44, 38.6 -7.17, 39.57 -5.3 C40.55 -3.43, 41.05 -0.75, 41.35 0.16 M0 0 C0.43 -1.28, 1.18 -5.48, 2.56 -7.66 C3.94 -9.84, 6.18 -11.68, 8.27 -13.1 C10.36 -14.52, 12.82 -15.55, 15.09 -16.19 C17.37 -16.83, 19.5 -17.14, 21.94 -16.94 C24.38 -16.75, 27.5 -16.01, 29.75 -15.03 C32.01 -14.05, 33.84 -12.69, 35.48 -11.07 C37.11 -9.44, 38.6 -7.17, 39.57 -5.3 C40.55 -3.43, 41.05 -0.75, 41.35 0.16" stroke="#e03131" stroke-width="2" fill="none"></path></g></g><mask></mask><g transform="translate(605.6916656494141 570.6178837812688) rotate(0 105.44999694824219 12)"><text x="0" y="19.3125" font-family="Cascadia, Segoe UI Emoji" font-size="20px" fill="#e03131" text-anchor="start" style="white-space: pre;" direction="ltr" dominant-baseline="alphabetic">Devolver o produto</text></g><g stroke-linecap="round"><g transform="translate(840 360.01393114229074) rotate(0 -61 65.49303442885463)"><path d="M0 0 C-26.73 -0.94, -50.98 -1.15, -122 0 M0 0 C-27.11 1.19, -54.74 -0.09, -122 0 M-122 0 C-121.86 31.98, -120.74 59.84, -122 130.99 M-122 0 C-121.99 40.29, -120.92 82.38, -122 130.99" stroke="#e03131" stroke-width="2" fill="none"></path></g><g transform="translate(840 360.01393114229074) rotate(0 -61 65.49303442885463)"><path d="M-130.28 107.4 C-129.14 111.05, -125.34 115.92, -122 130.99 M-130.28 107.4 C-128.75 113.48, -127.6 117.41, -122 130.99" stroke="#e03131" stroke-width="2" fill="none"></path></g><g transform="translate(840 360.01393114229074) rotate(0 -61 65.49303442885463)"><path d="M-113.18 107.59 C-115.72 111.27, -115.61 116.1, -122 130.99 M-113.18 107.59 C-115.42 113.67, -118.05 117.56, -122 130.99" stroke="#e03131" stroke-width="2" fill="none"></path></g></g><mask></mask><g stroke-linecap="round"><g transform="translate(670 535) rotate(0 -67.5 -57)"><path d="M0 0 C-43.86 -0.88, -86.71 1.81, -134 -1 M0 0 C-30.06 -0.02, -61.65 -1.61, -134 -1 M-134 -1 C-132.53 -30.53, -132.9 -59.68, -135 -114 M-134 -1 C-134.01 -30.34, -134.64 -59.95, -135 -114" stroke="#e03131" stroke-width="2" fill="none"></path></g><g transform="translate(670 535) rotate(0 -67.5 -57)"><path d="M-126.25 -90.58 C-129.35 -99.66, -131.37 -104.27, -135 -114 M-126.25 -90.58 C-127.87 -94.99, -131.05 -101.67, -135 -114" stroke="#e03131" stroke-width="2" fill="none"></path></g><g transform="translate(670 535) rotate(0 -67.5 -57)"><path d="M-143.35 -90.43 C-140.88 -99.68, -137.32 -104.34, -135 -114 M-143.35 -90.43 C-141.09 -94.78, -140.4 -101.49, -135 -114" stroke="#e03131" stroke-width="2" fill="none"></path></g></g><mask></mask><g stroke-linecap="round" transform="translate(370.65124511718795 506.3821162187312) rotate(0 32.540420532226506 32.540420532226506)"><path d="M0 0 C14.03 0, 28.05 0, 65.08 0 M0 0 C18.99 0, 37.98 0, 65.08 0 M65.08 0 C65.08 23.53, 65.08 47.07, 65.08 65.08 M65.08 0 C65.08 19.63, 65.08 39.25, 65.08 65.08 M65.08 65.08 C48.25 65.08, 31.43 65.08, 0 65.08 M65.08 65.08 C40.93 65.08, 16.78 65.08, 0 65.08 M0 65.08 C0 48.47, 0 31.86, 0 0 M0 65.08 C0 47.77, 0 30.45, 0 0" stroke="#e03131" stroke-width="2" fill="none"></path></g><g stroke-linecap="round" transform="translate(378.83489658521603 535.4887907221366) rotate(0 4.058960227902446 4.058960227902446)"><path d="M8.12 4.06 C8.12 4.29, 8.1 4.53, 8.06 4.76 C8.02 5, 7.95 5.23, 7.87 5.45 C7.79 5.67, 7.69 5.88, 7.57 6.09 C7.46 6.29, 7.32 6.49, 7.17 6.67 C7.02 6.85, 6.85 7.02, 6.67 7.17 C6.49 7.32, 6.29 7.46, 6.09 7.57 C5.88 7.69, 5.67 7.79, 5.45 7.87 C5.23 7.95, 5 8.02, 4.76 8.06 C4.53 8.1, 4.29 8.12, 4.06 8.12 C3.82 8.12, 3.59 8.1, 3.35 8.06 C3.12 8.02, 2.89 7.95, 2.67 7.87 C2.45 7.79, 2.23 7.69, 2.03 7.57 C1.83 7.46, 1.63 7.32, 1.45 7.17 C1.27 7.02, 1.1 6.85, 0.95 6.67 C0.8 6.49, 0.66 6.29, 0.54 6.09 C0.43 5.88, 0.33 5.67, 0.24 5.45 C0.16 5.23, 0.1 5, 0.06 4.76 C0.02 4.53, 0 4.29, 0 4.06 C0 3.82, 0.02 3.59, 0.06 3.35 C0.1 3.12, 0.16 2.89, 0.24 2.67 C0.33 2.45, 0.43 2.23, 0.54 2.03 C0.66 1.83, 0.8 1.63, 0.95 1.45 C1.1 1.27, 1.27 1.1, 1.45 0.95 C1.63 0.8, 1.83 0.66, 2.03 0.54 C2.23 0.43, 2.45 0.33, 2.67 0.24 C2.89 0.16, 3.12 0.1, 3.35 0.06 C3.59 0.02, 3.82 0, 4.06 0 C4.29 0, 4.53 0.02, 4.76 0.06 C5 0.1, 5.23 0.16, 5.45 0.24 C5.67 0.33, 5.88 0.43, 6.09 0.54 C6.29 0.66, 6.49 0.8, 6.67 0.95 C6.85 1.1, 7.02 1.27, 7.17 1.45 C7.32 1.63, 7.46 1.83, 7.57 2.03 C7.69 2.23, 7.79 2.45, 7.87 2.67 C7.95 2.89, 8.02 3.12, 8.06 3.35 C8.1 3.59, 8.11 3.94, 8.12 4.06 C8.13 4.18, 8.13 3.94, 8.12 4.06" stroke="#e03131" stroke-width="2" fill="none"></path></g><g stroke-linecap="round" transform="translate(419.89266363483557 535.4153556286708) rotate(0 4.058960227902446 4.058960227902446)"><path d="M8.12 4.06 C8.12 4.29, 8.1 4.53, 8.06 4.76 C8.02 5, 7.95 5.23, 7.87 5.45 C7.79 5.67, 7.69 5.88, 7.57 6.09 C7.46 6.29, 7.32 6.49, 7.17 6.67 C7.02 6.85, 6.85 7.02, 6.67 7.17 C6.49 7.32, 6.29 7.46, 6.09 7.57 C5.88 7.69, 5.67 7.79, 5.45 7.87 C5.23 7.95, 5 8.02, 4.76 8.06 C4.53 8.1, 4.29 8.12, 4.06 8.12 C3.82 8.12, 3.59 8.1, 3.35 8.06 C3.12 8.02, 2.89 7.95, 2.67 7.87 C2.45 7.79, 2.23 7.69, 2.03 7.57 C1.83 7.46, 1.63 7.32, 1.45 7.17 C1.27 7.02, 1.1 6.85, 0.95 6.67 C0.8 6.49, 0.66 6.29, 0.54 6.09 C0.43 5.88, 0.33 5.67, 0.24 5.45 C0.16 5.23, 0.1 5, 0.06 4.76 C0.02 4.53, 0 4.29, 0 4.06 C0 3.82, 0.02 3.59, 0.06 3.35 C0.1 3.12, 0.16 2.89, 0.24 2.67 C0.33 2.45, 0.43 2.23, 0.54 2.03 C0.66 1.83, 0.8 1.63, 0.95 1.45 C1.1 1.27, 1.27 1.1, 1.45 0.95 C1.63 0.8, 1.83 0.66, 2.03 0.54 C2.23 0.43, 2.45 0.33, 2.67 0.24 C2.89 0.16, 3.12 0.1, 3.35 0.06 C3.59 0.02, 3.82 0, 4.06 0 C4.29 0, 4.53 0.02, 4.76 0.06 C5 0.1, 5.23 0.16, 5.45 0.24 C5.67 0.33, 5.88 0.43, 6.09 0.54 C6.29 0.66, 6.49 0.8, 6.67 0.95 C6.85 1.1, 7.02 1.27, 7.17 1.45 C7.32 1.63, 7.46 1.83, 7.57 2.03 C7.69 2.23, 7.79 2.45, 7.87 2.67 C7.95 2.89, 8.02 3.12, 8.06 3.35 C8.1 3.59, 8.11 3.94, 8.12 4.06 C8.13 4.18, 8.13 3.94, 8.12 4.06" stroke="#e03131" stroke-width="2" fill="none"></path></g><g stroke-linecap="round"><g transform="translate(395.81611793125876 531.8083954676424) rotate(0 0.7141117199084874 7.450742628495675)"><path d="M0 0 C0.26 0.59, 1.19 2.25, 1.53 3.52 C1.87 4.79, 2.08 6.27, 2.04 7.61 C2 8.96, 1.75 10.38, 1.3 11.6 C0.86 12.81, -0.3 14.35, -0.62 14.9 M0 0 C0.26 0.59, 1.19 2.25, 1.53 3.52 C1.87 4.79, 2.08 6.27, 2.04 7.61 C2 8.96, 1.75 10.38, 1.3 11.6 C0.86 12.81, -0.3 14.35, -0.62 14.9" stroke="#e03131" stroke-width="2" fill="none"></path></g></g><mask></mask><g stroke-linecap="round"><g transform="translate(402.3776136499969 525.8812364345542) rotate(89.99999999999994 0.7141117199084874 7.450742628495675)"><path d="M0 0 C0.26 0.59, 1.19 2.25, 1.53 3.52 C1.87 4.79, 2.08 6.27, 2.04 7.61 C2 8.96, 1.75 10.38, 1.3 11.6 C0.86 12.81, -0.3 14.35, -0.62 14.9 M0 0 C0.26 0.59, 1.19 2.25, 1.53 3.52 C1.87 4.79, 2.08 6.27, 2.04 7.61 C2 8.96, 1.75 10.38, 1.3 11.6 C0.86 12.81, -0.3 14.35, -0.62 14.9" stroke="#e03131" stroke-width="2" fill="none"></path></g></g><mask></mask><g stroke-linecap="round"><g transform="translate(408.31201754824497 532.4000815335778) rotate(180 0.7141117199084874 7.450742628495675)"><path d="M0 0 C0.26 0.59, 1.19 2.25, 1.53 3.52 C1.87 4.79, 2.08 6.27, 2.04 7.61 C2 8.96, 1.75 10.38, 1.3 11.6 C0.86 12.81, -0.3 14.35, -0.62 14.9 M0 0 C0.26 0.59, 1.19 2.25, 1.53 3.52 C1.87 4.79, 2.08 6.27, 2.04 7.61 C2 8.96, 1.75 10.38, 1.3 11.6 C0.86 12.81, -0.3 14.35, -0.62 14.9" stroke="#e03131" stroke-width="2" fill="none"></path></g></g><mask></mask><g stroke-linecap="round"><g transform="translate(401.7596161222764 538.3480954527879) rotate(270 0.7141117199084874 7.450742628495675)"><path d="M0 0 C0.26 0.59, 1.19 2.25, 1.53 3.52 C1.87 4.79, 2.08 6.27, 2.04 7.61 C2 8.96, 1.75 10.38, 1.3 11.6 C0.86 12.81, -0.3 14.35, -0.62 14.9 M0 0 C0.26 0.59, 1.19 2.25, 1.53 3.52 C1.87 4.79, 2.08 6.27, 2.04 7.61 C2 8.96, 1.75 10.38, 1.3 11.6 C0.86 12.81, -0.3 14.35, -0.62 14.9" stroke="#e03131" stroke-width="2" fill="none"></path></g></g><mask></mask><g stroke-linecap="round"><g transform="translate(388.97957226418157 539.5625155119044) rotate(0 2.921236942186397 0.051064377021191376)"><path d="M0 0 C2.1 -0.02, 4.21 -0.04, 5.82 -0.05 M0 0 C1.75 -0.02, 3.51 -0.03, 5.82 -0.05 M5.82 -0.05 C5.15 -0.69, 4.49 -1.34, 3.25 -2.53 M5.82 -0.05 C4.87 -0.97, 3.92 -1.89, 3.25 -2.53 M3.25 -2.53 C3.92 -1.9, 4.58 -1.26, 5.84 -0.05 M3.25 -2.53 C3.94 -1.87, 4.63 -1.21, 5.84 -0.05 M5.84 -0.05 C5.04 0.72, 4.23 1.49, 3.04 2.63 M5.84 -0.05 C5.04 0.72, 4.24 1.48, 3.04 2.63" stroke="#e03131" stroke-width="2" fill="none"></path></g></g><mask></mask><g stroke-linecap="round"><g transform="translate(411.57342089111944 539.6853859735413) rotate(0 2.921236942186397 0.051064377021191376)"><path d="M0 0 C1.42 -0.01, 2.84 -0.03, 5.82 -0.05 M0 0 C1.32 -0.01, 2.64 -0.02, 5.82 -0.05 M5.82 -0.05 C5.24 -0.61, 4.67 -1.17, 3.25 -2.53 M5.82 -0.05 C4.91 -0.93, 4.01 -1.81, 3.25 -2.53 M3.25 -2.53 C3.84 -1.97, 4.42 -1.42, 5.84 -0.05 M3.25 -2.53 C4.27 -1.56, 5.28 -0.59, 5.84 -0.05 M5.84 -0.05 C5.2 0.56, 4.56 1.18, 3.04 2.63 M5.84 -0.05 C4.94 0.81, 4.04 1.67, 3.04 2.63" stroke="#e03131" stroke-width="2" fill="none"></path></g></g><mask></mask><g stroke-linecap="round"><g transform="translate(382.8582905684116 535.532610104656) rotate(0 20.67481640637584 -8.390257953829575)"><path d="M0 0 C0.43 -1.28, 1.18 -5.48, 2.56 -7.66 C3.94 -9.84, 6.18 -11.68, 8.27 -13.1 C10.36 -14.52, 12.82 -15.55, 15.09 -16.19 C17.37 -16.83, 19.5 -17.14, 21.94 -16.94 C24.38 -16.75, 27.5 -16.01, 29.75 -15.03 C32.01 -14.05, 33.84 -12.69, 35.48 -11.07 C37.11 -9.44, 38.6 -7.17, 39.57 -5.3 C40.55 -3.43, 41.05 -0.75, 41.35 0.16 M0 0 C0.43 -1.28, 1.18 -5.48, 2.56 -7.66 C3.94 -9.84, 6.18 -11.68, 8.27 -13.1 C10.36 -14.52, 12.82 -15.55, 15.09 -16.19 C17.37 -16.83, 19.5 -17.14, 21.94 -16.94 C24.38 -16.75, 27.5 -16.01, 29.75 -15.03 C32.01 -14.05, 33.84 -12.69, 35.48 -11.07 C37.11 -9.44, 38.6 -7.17, 39.57 -5.3 C40.55 -3.43, 41.05 -0.75, 41.35 0.16" stroke="#e03131" stroke-width="2" fill="none"></path></g></g><mask></mask><g stroke-linecap="round"><g transform="translate(382.60463319539986 560.220193776807) rotate(180 20.67481640637584 -8.390257953829575)"><path d="M0 0 C0.43 -1.28, 1.18 -5.48, 2.56 -7.66 C3.94 -9.84, 6.18 -11.68, 8.27 -13.1 C10.36 -14.52, 12.82 -15.55, 15.09 -16.19 C17.37 -16.83, 19.5 -17.14, 21.94 -16.94 C24.38 -16.75, 27.5 -16.01, 29.75 -15.03 C32.01 -14.05, 33.84 -12.69, 35.48 -11.07 C37.11 -9.44, 38.6 -7.17, 39.57 -5.3 C40.55 -3.43, 41.05 -0.75, 41.35 0.16 M0 0 C0.43 -1.28, 1.18 -5.48, 2.56 -7.66 C3.94 -9.84, 6.18 -11.68, 8.27 -13.1 C10.36 -14.52, 12.82 -15.55, 15.09 -16.19 C17.37 -16.83, 19.5 -17.14, 21.94 -16.94 C24.38 -16.75, 27.5 -16.01, 29.75 -15.03 C32.01 -14.05, 33.84 -12.69, 35.48 -11.07 C37.11 -9.44, 38.6 -7.17, 39.57 -5.3 C40.55 -3.43, 41.05 -0.75, 41.35 0.16" stroke="#e03131" stroke-width="2" fill="none"></path></g></g><mask></mask><g transform="translate(311.69166564941406 576.6178837812688) rotate(0 99.59166717529297 12)"><text x="0" y="19.3125" font-family="Cascadia, Segoe UI Emoji" font-size="20px" fill="#e03131" text-anchor="start" style="white-space: pre;" direction="ltr" dominant-baseline="alphabetic">Cancelar o pedido</text></g><g stroke-linecap="round"><g transform="translate(498 362.96636849726895) rotate(0 -47.5232301992437 68.01681575136553)"><path d="M0 0 C-36.69 -1.15, -71.94 0.62, -95.05 0 M0 0 C-35.49 -0.82, -70.08 -0.43, -95.05 0 M-95.05 0 C-95.81 46.41, -95.95 90.86, -94.99 136.03 M-95.05 0 C-96.79 43.53, -96.66 85.37, -94.99 136.03" stroke="#e03131" stroke-width="2" fill="none"></path></g><g transform="translate(498 362.96636849726895) rotate(0 -47.5232301992437 68.01681575136553)"><path d="M-104.12 112.76 C-100.28 120.32, -95.22 131.09, -94.99 136.03 M-104.12 112.76 C-101.63 121.4, -98.2 130.29, -94.99 136.03" stroke="#e03131" stroke-width="2" fill="none"></path></g><g transform="translate(498 362.96636849726895) rotate(0 -47.5232301992437 68.01681575136553)"><path d="M-87.02 112.34 C-89.79 120.11, -91.35 131.04, -94.99 136.03 M-87.02 112.34 C-90.77 120.97, -93.59 130.01, -94.99 136.03" stroke="#e03131" stroke-width="2" fill="none"></path></g></g><mask></mask><g stroke-linecap="round"><g transform="translate(357.9979454073132 537.0360360360361) rotate(0 -78.00306706488882 -53.01801801801804)"><path d="M0 0 C-47.38 1.37, -97.06 -1.01, -156.01 -0.04 M0 0 C-45.94 -0.81, -91.37 -1.45, -156.01 -0.04 M-156.01 -0.04 C-157.22 -34.32, -156.36 -72.7, -156.01 -106.04 M-156.01 -0.04 C-155.47 -31.14, -155.95 -62.43, -156.01 -106.04" stroke="#e03131" stroke-width="2" fill="none"></path></g><g transform="translate(357.9979454073132 537.0360360360361) rotate(0 -78.00306706488882 -53.01801801801804)"><path d="M-147.37 -82.57 C-148.53 -88.11, -151.79 -97.87, -156.01 -106.04 M-147.37 -82.57 C-150.24 -88.97, -152.61 -96.46, -156.01 -106.04" stroke="#e03131" stroke-width="2" fill="none"></path></g><g transform="translate(357.9979454073132 537.0360360360361) rotate(0 -78.00306706488882 -53.01801801801804)"><path d="M-164.47 -82.51 C-160.24 -88.01, -158.12 -97.79, -156.01 -106.04 M-164.47 -82.51 C-162.34 -88.78, -159.71 -96.29, -156.01 -106.04" stroke="#e03131" stroke-width="2" fill="none"></path></g></g><mask></mask><g transform="translate(14 231) rotate(0 82.01667022705078 12)"><text x="0" y="19.3125" font-family="Cascadia, Segoe UI Emoji" font-size="20px" fill="#2f9e44" text-anchor="start" style="white-space: pre;" direction="ltr" dominant-baseline="alphabetic">Criar o pedido</text></g><g stroke-linecap="round"><g transform="translate(91.98908609954043 269) rotate(0 36.00509646389912 49.50062764417291)"><path d="M0 0 C-0.72 34.06, -0.59 66.88, 0 99 M0 0 C0.27 28.1, 1.09 56.53, 0 99 M0 99 C26.52 99.41, 50.8 98.69, 72.01 99 M0 99 C15.36 98.2, 32.4 97.77, 72.01 99" stroke="#2f9e44" stroke-width="2" fill="none"></path></g><g transform="translate(91.98908609954043 269) rotate(0 36.00509646389912 49.50062764417291)"><path d="M48.33 107.01 C56.55 104.19, 64.8 100.29, 72.01 99 M48.33 107.01 C54.38 104.66, 61.89 102.87, 72.01 99" stroke="#2f9e44" stroke-width="2" fill="none"></path></g><g transform="translate(91.98908609954043 269) rotate(0 36.00509646389912 49.50062764417291)"><path d="M48.72 89.91 C56.67 92.96, 64.8 94.93, 72.01 99 M48.72 89.91 C54.81 92.4, 62.2 95.44, 72.01 99" stroke="#2f9e44" stroke-width="2" fill="none"></path></g></g><mask></mask><g stroke-linecap="round" transform="translate(189 641) rotate(0 14 15)"><path d="M0 0.56 L27.13 0.12 L27.52 30.2 L-0.03 29.64" stroke="none" stroke-width="0" fill="#2f9e44"></path><path d="M0 0 C5.69 -1.01, 12.8 0.53, 28 0 M0 0 C8.74 -0.26, 17.15 0.42, 28 0 M28 0 C28.43 7.41, 27.11 15.44, 28 30 M28 0 C28.29 9.97, 28.08 20.7, 28 30 M28 30 C20.04 29.54, 12.45 29.7, 0 30 M28 30 C18.4 30.11, 9.97 30.28, 0 30 M0 30 C-0.81 23.02, 0.83 14.58, 0 0 M0 30 C-0.35 18.46, 0.32 6.29, 0 0" stroke="#2f9e44" stroke-width="2" fill="none"></path></g><g transform="translate(233 644) rotate(0 93.73332977294922 12)"><text x="0" y="19.3125" font-family="Cascadia, Segoe UI Emoji" font-size="20px" fill="#2f9e44" text-anchor="start" style="white-space: pre;" direction="ltr" dominant-baseline="alphabetic">Fluxo de sucesso</text></g><g stroke-linecap="round" transform="translate(188.26667022705078 703) rotate(0 14 15)"><path d="M-0.42 -0.57 L27.67 -0.97 L27.17 30.17 L0.42 30.82" stroke="none" stroke-width="0" fill="#e03131"></path><path d="M0 0 C8.17 -0.54, 15.96 -0.37, 28 0 M0 0 C10.17 -0.35, 20.3 -0.18, 28 0 M28 0 C28.43 8.6, 28.71 19.03, 28 30 M28 0 C28.28 6.04, 28.57 12.13, 28 30 M28 30 C21.68 30.8, 14.31 29.65, 0 30 M28 30 C19.46 29.5, 10.66 30.14, 0 30 M0 30 C0.7 17.96, 0.54 6.18, 0 0 M0 30 C0.57 18.23, -0.3 6.06, 0 0" stroke="#e03131" stroke-width="2" fill="none"></path></g><g transform="translate(232.26667022705078 706) rotate(0 117.16666412353516 12)"><text x="0" y="19.3125" font-family="Cascadia, Segoe UI Emoji" font-size="20px" fill="#e03131" text-anchor="start" style="white-space: pre;" direction="ltr" dominant-baseline="alphabetic">Fluxo de compensação</text></g><g stroke-linecap="round" transform="translate(10 10) rotate(0 626.5 49.5)"><path d="M0 0 C355.87 2.13, 711.06 2.05, 1253 0 M0 0 C392.53 0.25, 784.35 0.25, 1253 0 M1253 0 C1254.27 36.69, 1252.78 76.04, 1253 99 M1253 0 C1253.24 24.54, 1253.02 51.51, 1253 99 M1253 99 C1001.71 97.51, 751.25 97.95, 0 99 M1253 99 C859.52 101.37, 466.81 101.43, 0 99 M0 99 C-1.47 76.57, 1.32 54.58, 0 0 M0 99 C-0.57 72.98, 0.5 47.08, 0 0" stroke="#1e1e1e" stroke-width="2" fill="none"></path></g><g transform="translate(566.1999969482422 47.5) rotate(0 70.30000305175781 12)"><text x="70.30000305175781" y="19.3125" font-family="Cascadia, Segoe UI Emoji" font-size="20px" fill="#1e1e1e" text-anchor="middle" style="white-space: pre;" direction="ltr" dominant-baseline="alphabetic">Coreografado</text></g></svg>