<svg version="1.1" xmlns="http://www.w3.org/2000/svg" viewBox="0 0 1275 714" width="1275" height="714">
  <!-- svg-source:excalidraw -->
  
  <defs>
    <style class="style-fonts">
      @font-face {
        font-family: "Virgil";
        src: url("https://excalidraw.com/Virgil.woff2");
      }
      @font-face {
        font-family: "Cascadia";
        src: url("https://excalidraw.com/Cascadia.woff2");
      }
      @font-face {
        font-family: "Assistant";
        src: url("https://excalidraw.com/Assistant-Regular.woff2");
      }
    </style>
    
  </defs>
  <rect x="0" y="0" width="1275" height="714" fill="#ffffff"></rect><g stroke-linecap="round"><g transform="translate(113.97524752475226 456.83810700926324) rotate(0 2.559405940594047 26.059405940594047)"><path d="M0 0 C0 3.81, 0 7.63, 0 10.7 M0 0 C0 3.05, 0 6.09, 0 10.7 M0 10.7 C-2.11 11.95, -4.23 13.2, -10.24 16.75 M0 10.7 C-3.03 12.49, -6.05 14.28, -10.24 16.75 M-10.24 16.75 C-10.24 22, -10.24 27.26, -10.24 33.97 M-10.24 16.75 C-10.24 23.09, -10.24 29.43, -10.24 33.97 M-10.24 33.97 C-6.5 36.07, -2.75 38.16, 1.4 40.49 M-10.24 33.97 C-7.81 35.33, -5.38 36.69, 1.4 40.49 M1.4 40.49 C6.81 37.96, 12.22 35.43, 15.36 33.97 M1.4 40.49 C6.74 37.99, 12.07 35.5, 15.36 33.97 M15.36 33.97 C19.03 35.97, 22.69 37.97, 25.59 39.55 M15.36 33.97 C17.9 35.36, 20.45 36.75, 25.59 39.55 M25.59 39.55 C19.32 43.01, 13.05 46.47, 2.79 52.12 M25.59 39.55 C18.77 43.31, 11.95 47.07, 2.79 52.12 M2.79 52.12 C-2.52 49.25, -7.83 46.38, -20.48 39.55 M2.79 52.12 C-4.09 48.4, -10.98 44.68, -20.48 39.55 M-20.48 39.55 C-20.48 33.53, -20.48 27.5, -20.48 12.1 M-20.48 39.55 C-20.48 33.84, -20.48 28.12, -20.48 12.1 M-20.48 12.1 C-15.89 9.39, -11.3 6.68, 0 0 M-20.48 12.1 C-13.3 7.86, -6.13 3.62, 0 0" stroke="#000000" stroke-width="2" fill="none"></path></g></g><mask></mask><g stroke-linecap="round"><g transform="translate(119.09405940594058 455.9074139399577) rotate(0 10.702970297029708 17.915841584158443)"><path d="M0 0 C0 3.61, 0 7.23, 0 11.63 M0 0 C0 2.43, 0 4.87, 0 11.63 M0 11.63 C4.55 14.36, 9.09 17.09, 11.63 18.61 M0 11.63 C2.96 13.41, 5.92 15.19, 11.63 18.61 M11.63 18.61 C11.63 23.18, 11.63 27.75, 11.63 31.18 M11.63 18.61 C11.63 21.48, 11.63 24.35, 11.63 31.18 M11.63 31.18 C13.82 32.27, 16.01 33.37, 20.94 35.83 M11.63 31.18 C13.8 32.26, 15.98 33.35, 20.94 35.83 M20.94 35.83 C21.08 28.63, 21.23 21.42, 21.41 12.56 M20.94 35.83 C21.12 26.71, 21.31 17.58, 21.41 12.56 M21.41 12.56 C16 9.39, 10.59 6.22, 0 0 M21.41 12.56 C13.16 7.72, 4.91 2.88, 0 0" stroke="#000000" stroke-width="2" fill="none"></path></g></g><mask></mask><g stroke-linecap="round" transform="translate(85.10512481960325 450.56783358479606) rotate(0 31.894875180396753 31.86433283040725)"><path d="M0 0 C15.59 0, 31.19 0, 63.79 0 M0 0 C19.68 0, 39.37 0, 63.79 0 M63.79 0 C63.79 15.46, 63.79 30.92, 63.79 63.73 M63.79 0 C63.79 21.45, 63.79 42.89, 63.79 63.73 M63.79 63.73 C40.12 63.73, 16.45 63.73, 0 63.73 M63.79 63.73 C39.16 63.73, 14.53 63.73, 0 63.73 M0 63.73 C0 48.86, 0 33.98, 0 0 M0 63.73 C0 45.02, 0 26.32, 0 0" stroke="#000000" stroke-width="2" fill="none"></path></g><g transform="translate(83.84166717529297 517.4321664152039) rotate(0 35.150001525878906 12)"><text x="35.150001525878906" y="19.3125" font-family="Cascadia, Segoe UI Emoji" font-size="20px" fill="#000000" text-anchor="middle" style="white-space: pre;" direction="ltr" dominant-baseline="alphabetic">vendas</text></g><g stroke-linecap="round"><g transform="translate(441.9752475247524 456.83810700926324) rotate(0 2.559405940594047 26.059405940594047)"><path d="M0 0 C0 3.93, 0 7.86, 0 10.7 M0 0 C0 3.72, 0 7.45, 0 10.7 M0 10.7 C-3.37 12.69, -6.73 14.68, -10.24 16.75 M0 10.7 C-2.41 12.13, -4.82 13.55, -10.24 16.75 M-10.24 16.75 C-10.24 21.6, -10.24 26.46, -10.24 33.97 M-10.24 16.75 C-10.24 20.47, -10.24 24.18, -10.24 33.97 M-10.24 33.97 C-6.72 35.94, -3.21 37.91, 1.4 40.49 M-10.24 33.97 C-7.39 35.56, -4.55 37.16, 1.4 40.49 M1.4 40.49 C4.7 38.95, 8 37.41, 15.36 33.97 M1.4 40.49 C5.43 38.6, 9.47 36.72, 15.36 33.97 M15.36 33.97 C17.79 35.3, 20.23 36.63, 25.59 39.55 M15.36 33.97 C19.36 36.15, 23.36 38.34, 25.59 39.55 M25.59 39.55 C18.63 43.39, 11.67 47.23, 2.79 52.12 M25.59 39.55 C18.14 43.66, 10.69 47.77, 2.79 52.12 M2.79 52.12 C-2.32 49.36, -7.44 46.6, -20.48 39.55 M2.79 52.12 C-3.57 48.69, -9.93 45.25, -20.48 39.55 M-20.48 39.55 C-20.48 31.81, -20.48 24.06, -20.48 12.1 M-20.48 39.55 C-20.48 32.2, -20.48 24.84, -20.48 12.1 M-20.48 12.1 C-15.34 9.07, -10.21 6.03, 0 0 M-20.48 12.1 C-14.91 8.81, -9.34 5.52, 0 0" stroke="#000000" stroke-width="2" fill="none"></path></g></g><mask></mask><g stroke-linecap="round"><g transform="translate(447.0940594059407 455.9074139399577) rotate(0 10.702970297029708 17.915841584158443)"><path d="M0 0 C0 2.74, 0 5.48, 0 11.63 M0 0 C0 4.42, 0 8.84, 0 11.63 M0 11.63 C3.75 13.88, 7.49 16.13, 11.63 18.61 M0 11.63 C2.82 13.33, 5.64 15.02, 11.63 18.61 M11.63 18.61 C11.63 23.42, 11.63 28.22, 11.63 31.18 M11.63 18.61 C11.63 22.62, 11.63 26.63, 11.63 31.18 M11.63 31.18 C14.2 32.46, 16.76 33.74, 20.94 35.83 M11.63 31.18 C14.9 32.81, 18.17 34.44, 20.94 35.83 M20.94 35.83 C21.12 26.67, 21.31 17.52, 21.41 12.56 M20.94 35.83 C21.09 28.19, 21.25 20.54, 21.41 12.56 M21.41 12.56 C12.87 7.55, 4.34 2.55, 0 0 M21.41 12.56 C13.84 8.12, 6.27 3.68, 0 0" stroke="#000000" stroke-width="2" fill="none"></path></g></g><mask></mask><g stroke-linecap="round" transform="translate(413.10512481960313 450.56783358479606) rotate(0 31.894875180396753 31.86433283040725)"><path d="M0 0 C21.08 0, 42.16 0, 63.79 0 M0 0 C21.01 0, 42.03 0, 63.79 0 M63.79 0 C63.79 20.11, 63.79 40.23, 63.79 63.73 M63.79 0 C63.79 20.13, 63.79 40.26, 63.79 63.73 M63.79 63.73 C38.57 63.73, 13.35 63.73, 0 63.73 M63.79 63.73 C39.54 63.73, 15.29 63.73, 0 63.73 M0 63.73 C0 41.43, 0 19.12, 0 0 M0 63.73 C0 43.85, 0 23.98, 0 0" stroke="#000000" stroke-width="2" fill="none"></path></g><g transform="translate(402.2249984741211 517.4321664152039) rotate(0 46.86666488647461 12)"><text x="46.86666488647461" y="19.3125" font-family="Cascadia, Segoe UI Emoji" font-size="20px" fill="#000000" text-anchor="middle" style="white-space: pre;" direction="ltr" dominant-baseline="alphabetic">produtos</text></g><g stroke-linecap="round"><g transform="translate(782.9752475247524 456.83810700926324) rotate(0 2.5594059405941607 26.059405940594047)"><path d="M0 0 C0 2.95, 0 5.89, 0 10.7 M0 0 C0 3.76, 0 7.51, 0 10.7 M0 10.7 C-4.03 13.08, -8.06 15.47, -10.24 16.75 M0 10.7 C-3.36 12.69, -6.73 14.68, -10.24 16.75 M-10.24 16.75 C-10.24 23.62, -10.24 30.48, -10.24 33.97 M-10.24 16.75 C-10.24 22.84, -10.24 28.93, -10.24 33.97 M-10.24 33.97 C-6.05 36.32, -1.86 38.66, 1.4 40.49 M-10.24 33.97 C-6.73 35.93, -3.22 37.9, 1.4 40.49 M1.4 40.49 C5.47 38.59, 9.54 36.69, 15.36 33.97 M1.4 40.49 C5.36 38.63, 9.33 36.78, 15.36 33.97 M15.36 33.97 C18.33 35.59, 21.3 37.21, 25.59 39.55 M15.36 33.97 C18.55 35.71, 21.74 37.45, 25.59 39.55 M25.59 39.55 C19.39 42.98, 13.18 46.4, 2.79 52.12 M25.59 39.55 C17.46 44.04, 9.33 48.52, 2.79 52.12 M2.79 52.12 C-4.46 48.2, -11.72 44.28, -20.48 39.55 M2.79 52.12 C-2.2 49.42, -7.19 46.73, -20.48 39.55 M-20.48 39.55 C-20.48 29.18, -20.48 18.81, -20.48 12.1 M-20.48 39.55 C-20.48 29.47, -20.48 19.39, -20.48 12.1 M-20.48 12.1 C-14.92 8.82, -9.36 5.53, 0 0 M-20.48 12.1 C-15.44 9.12, -10.4 6.15, 0 0" stroke="#000000" stroke-width="2" fill="none"></path></g></g><mask></mask><g stroke-linecap="round"><g transform="translate(788.0940594059407 455.9074139399577) rotate(0 10.702970297029651 17.915841584158443)"><path d="M0 0 C0 4.07, 0 8.14, 0 11.63 M0 0 C0 3.63, 0 7.26, 0 11.63 M0 11.63 C2.96 13.41, 5.92 15.19, 11.63 18.61 M0 11.63 C4.5 14.33, 9 17.03, 11.63 18.61 M11.63 18.61 C11.63 21.34, 11.63 24.06, 11.63 31.18 M11.63 18.61 C11.63 21.5, 11.63 24.39, 11.63 31.18 M11.63 31.18 C14.55 32.64, 17.48 34.1, 20.94 35.83 M11.63 31.18 C14.21 32.47, 16.78 33.75, 20.94 35.83 M20.94 35.83 C21.09 28.13, 21.25 20.43, 21.41 12.56 M20.94 35.83 C21.05 30.31, 21.16 24.8, 21.41 12.56 M21.41 12.56 C15.03 8.82, 8.66 5.08, 0 0 M21.41 12.56 C13.75 8.07, 6.1 3.58, 0 0" stroke="#000000" stroke-width="2" fill="none"></path></g></g><mask></mask><g stroke-linecap="round" transform="translate(754.1051248196031 450.56783358479606) rotate(0 31.894875180396753 31.86433283040725)"><path d="M0 0 C23.5 0, 46.99 0, 63.79 0 M0 0 C17.82 0, 35.65 0, 63.79 0 M63.79 0 C63.79 13.61, 63.79 27.22, 63.79 63.73 M63.79 0 C63.79 21.21, 63.79 42.42, 63.79 63.73 M63.79 63.73 C50.99 63.73, 38.19 63.73, 0 63.73 M63.79 63.73 C48.34 63.73, 32.89 63.73, 0 63.73 M0 63.73 C0 41.25, 0 18.77, 0 0 M0 63.73 C0 46.73, 0 29.73, 0 0" stroke="#000000" stroke-width="2" fill="none"></path></g><g transform="translate(731.4333343505859 517.4321664152039) rotate(0 58.58333206176758 12)"><text x="58.58333206176758" y="19.3125" font-family="Cascadia, Segoe UI Emoji" font-size="20px" fill="#000000" text-anchor="middle" style="white-space: pre;" direction="ltr" dominant-baseline="alphabetic">financeiro</text></g><g stroke-linecap="round"><g transform="translate(1148.9752475247524 456.83810700926324) rotate(0 2.5594059405941607 26.059405940594047)"><path d="M0 0 C0 3.78, 0 7.55, 0 10.7 M0 0 C0 2.85, 0 5.71, 0 10.7 M0 10.7 C-3.72 12.9, -7.43 15.1, -10.24 16.75 M0 10.7 C-3.86 12.98, -7.71 15.26, -10.24 16.75 M-10.24 16.75 C-10.24 22.47, -10.24 28.19, -10.24 33.97 M-10.24 16.75 C-10.24 22.2, -10.24 27.65, -10.24 33.97 M-10.24 33.97 C-6.69 35.96, -3.14 37.95, 1.4 40.49 M-10.24 33.97 C-7.14 35.7, -4.04 37.44, 1.4 40.49 M1.4 40.49 C4.33 39.11, 7.27 37.74, 15.36 33.97 M1.4 40.49 C5.66 38.49, 9.93 36.5, 15.36 33.97 M15.36 33.97 C19.4 36.18, 23.45 38.39, 25.59 39.55 M15.36 33.97 C18.17 35.51, 20.99 37.04, 25.59 39.55 M25.59 39.55 C17.26 44.14, 8.93 48.73, 2.79 52.12 M25.59 39.55 C20.13 42.57, 14.66 45.58, 2.79 52.12 M2.79 52.12 C-4.66 48.09, -12.12 44.07, -20.48 39.55 M2.79 52.12 C-5.34 47.72, -13.48 43.33, -20.48 39.55 M-20.48 39.55 C-20.48 31.5, -20.48 23.45, -20.48 12.1 M-20.48 39.55 C-20.48 31.18, -20.48 22.81, -20.48 12.1 M-20.48 12.1 C-14.61 8.64, -8.75 5.17, 0 0 M-20.48 12.1 C-16.04 9.48, -11.61 6.86, 0 0" stroke="#000000" stroke-width="2" fill="none"></path></g></g><mask></mask><g stroke-linecap="round"><g transform="translate(1154.0940594059407 455.9074139399577) rotate(0 10.702970297029651 17.915841584158443)"><path d="M0 0 C0 3.43, 0 6.86, 0 11.63 M0 0 C0 2.74, 0 5.49, 0 11.63 M0 11.63 C4.46 14.31, 8.91 16.98, 11.63 18.61 M0 11.63 C4.17 14.14, 8.34 16.64, 11.63 18.61 M11.63 18.61 C11.63 22.73, 11.63 26.85, 11.63 31.18 M11.63 18.61 C11.63 23.3, 11.63 27.98, 11.63 31.18 M11.63 31.18 C14.84 32.78, 18.05 34.39, 20.94 35.83 M11.63 31.18 C14.04 32.38, 16.44 33.58, 20.94 35.83 M20.94 35.83 C21.08 28.96, 21.22 22.1, 21.41 12.56 M20.94 35.83 C21.09 28.18, 21.25 20.54, 21.41 12.56 M21.41 12.56 C16.64 9.77, 11.87 6.97, 0 0 M21.41 12.56 C15.01 8.81, 8.62 5.06, 0 0" stroke="#000000" stroke-width="2" fill="none"></path></g></g><mask></mask><g stroke-linecap="round" transform="translate(1120.1051248196031 450.56783358479606) rotate(0 31.894875180396753 31.86433283040725)"><path d="M0 0 C22.52 0, 45.04 0, 63.79 0 M0 0 C21.29 0, 42.58 0, 63.79 0 M63.79 0 C63.79 20.29, 63.79 40.58, 63.79 63.73 M63.79 0 C63.79 18.25, 63.79 36.5, 63.79 63.73 M63.79 63.73 C45.37 63.73, 26.95 63.73, 0 63.73 M63.79 63.73 C49.54 63.73, 35.3 63.73, 0 63.73 M0 63.73 C0 38.96, 0 14.19, 0 0 M0 63.73 C0 39.26, 0 14.8, 0 0" stroke="#000000" stroke-width="2" fill="none"></path></g><g transform="translate(1114.775001525879 517.4321664152039) rotate(0 41.00833511352539 12)"><text x="41.00833511352539" y="19.3125" font-family="Cascadia, Segoe UI Emoji" font-size="20px" fill="#000000" text-anchor="middle" style="white-space: pre;" direction="ltr" dominant-baseline="alphabetic">entrega</text></g><g stroke-linecap="round" transform="translate(39 612) rotate(0 14 15)"><path d="M0 0.56 L27.13 0.12 L27.52 30.2 L-0.03 29.64" stroke="none" stroke-width="0" fill="#2f9e44"></path><path d="M0 0 C5.69 -1.01, 12.8 0.53, 28 0 M0 0 C8.74 -0.26, 17.15 0.42, 28 0 M28 0 C28.43 7.41, 27.11 15.44, 28 30 M28 0 C28.29 9.97, 28.08 20.7, 28 30 M28 30 C20.04 29.54, 12.45 29.7, 0 30 M28 30 C18.4 30.11, 9.97 30.28, 0 30 M0 30 C-0.81 23.02, 0.83 14.58, 0 0 M0 30 C-0.35 18.46, 0.32 6.29, 0 0" stroke="#2f9e44" stroke-width="2" fill="none"></path></g><g transform="translate(83 615) rotate(0 93.73332977294922 12)"><text x="0" y="19.3125" font-family="Cascadia, Segoe UI Emoji" font-size="20px" fill="#2f9e44" text-anchor="start" style="white-space: pre;" direction="ltr" dominant-baseline="alphabetic">Fluxo de sucesso</text></g><g stroke-linecap="round" transform="translate(38.26667022705078 674) rotate(0 14 15)"><path d="M-0.42 -0.57 L27.67 -0.97 L27.17 30.17 L0.42 30.82" stroke="none" stroke-width="0" fill="#e03131"></path><path d="M0 0 C8.17 -0.54, 15.96 -0.37, 28 0 M0 0 C10.17 -0.35, 20.3 -0.18, 28 0 M28 0 C28.43 8.6, 28.71 19.03, 28 30 M28 0 C28.28 6.04, 28.57 12.13, 28 30 M28 30 C21.68 30.8, 14.31 29.65, 0 30 M28 30 C19.46 29.5, 10.66 30.14, 0 30 M0 30 C0.7 17.96, 0.54 6.18, 0 0 M0 30 C0.57 18.23, -0.3 6.06, 0 0" stroke="#e03131" stroke-width="2" fill="none"></path></g><g transform="translate(82.26667022705078 677) rotate(0 117.16666412353516 12)"><text x="0" y="19.3125" font-family="Cascadia, Segoe UI Emoji" font-size="20px" fill="#e03131" text-anchor="start" style="white-space: pre;" direction="ltr" dominant-baseline="alphabetic">Fluxo de compensação</text></g><g stroke-linecap="round" transform="translate(10 10) rotate(0 626.5 49.5)"><path d="M0 0 C355.87 2.13, 711.06 2.05, 1253 0 M0 0 C392.53 0.25, 784.35 0.25, 1253 0 M1253 0 C1254.27 36.69, 1252.78 76.04, 1253 99 M1253 0 C1253.24 24.54, 1253.02 51.51, 1253 99 M1253 99 C1001.71 97.51, 751.25 97.95, 0 99 M1253 99 C859.52 101.37, 466.81 101.43, 0 99 M0 99 C-1.47 76.57, 1.32 54.58, 0 0 M0 99 C-0.57 72.98, 0.5 47.08, 0 0" stroke="#1e1e1e" stroke-width="2" fill="none"></path></g><g transform="translate(572.0583343505859 47.5) rotate(0 64.44166564941406 12)"><text x="64.44166564941406" y="19.3125" font-family="Cascadia, Segoe UI Emoji" font-size="20px" fill="#1e1e1e" text-anchor="middle" style="white-space: pre;" direction="ltr" dominant-baseline="alphabetic">Orquestrado</text></g><g stroke-linecap="round" transform="translate(10 134.5) rotate(0 627.5 50)"><path d="M0 0 C402.06 0.27, 803.41 -0.63, 1255 0 M0 0 C267.37 2.71, 535.27 3.04, 1255 0 M1255 0 C1253.72 25.9, 1256.81 47.83, 1255 100 M1255 0 C1256.23 21.83, 1256.69 44.05, 1255 100 M1255 100 C767.47 96.59, 279.74 96.8, 0 100 M1255 100 C985.05 97.29, 714.77 97.76, 0 100 M0 100 C1 69.56, -1.1 41.86, 0 0 M0 100 C-0.41 78.47, -0.32 57.02, 0 0" stroke="#1971c2" stroke-width="2" fill="none"></path></g><g transform="translate(450.03334045410156 172.5) rotate(0 187.46665954589844 12)"><text x="187.46665954589844" y="19.3125" font-family="Cascadia, Segoe UI Emoji" font-size="20px" fill="#1971c2" text-anchor="middle" style="white-space: pre;" direction="ltr" dominant-baseline="alphabetic">SEC - Saga Execution Coordinator</text></g><g stroke-linecap="round"><g transform="translate(99 249) rotate(0 -0.5 96)"><path d="M0 0 C0.32 44.17, -2.37 88.32, -1 192 M0 0 C0.55 39.23, 2.17 78.95, -1 192" stroke="#2f9e44" stroke-width="2" fill="none"></path></g><g transform="translate(99 249) rotate(0 -0.5 96)"><path d="M-9.07 168.34 C-6.28 174.38, -6.92 180.38, -1 192 M-9.07 168.34 C-8.13 173.08, -4.65 178.24, -1 192" stroke="#2f9e44" stroke-width="2" fill="none"></path></g><g transform="translate(99 249) rotate(0 -0.5 96)"><path d="M8.03 168.69 C6.94 174.61, 2.43 180.53, -1 192 M8.03 168.69 C5.46 173.23, 5.43 178.31, -1 192" stroke="#2f9e44" stroke-width="2" fill="none"></path></g></g><mask></mask><g stroke-linecap="round"><g transform="translate(132 438) rotate(0 0 -95)"><path d="M0 0 C2.1 -57.04, 2.46 -115.31, 0 -190 M0 0 C-2.55 -72.87, -1.6 -147.05, 0 -190" stroke="#2f9e44" stroke-width="2" fill="none"></path></g><g transform="translate(132 438) rotate(0 0 -95)"><path d="M7.94 -166.3 C6.54 -172.6, 4.48 -180.11, 0 -190 M7.94 -166.3 C3.71 -175.16, 1.6 -185.26, 0 -190" stroke="#2f9e44" stroke-width="2" fill="none"></path></g><g transform="translate(132 438) rotate(0 0 -95)"><path d="M-9.15 -166.74 C-5.34 -172.87, -2.19 -180.24, 0 -190 M-9.15 -166.74 C-6.8 -175.29, -2.32 -185.22, 0 -190" stroke="#2f9e44" stroke-width="2" fill="none"></path></g></g><mask></mask><g stroke-linecap="round"><g transform="translate(424 246) rotate(0 0.5 98.5)"><path d="M0 0 C3.02 75.5, 0.45 152.46, 1 197 M0 0 C0.49 61.98, -0.55 124.32, 1 197" stroke="#2f9e44" stroke-width="2" fill="none"></path></g><g transform="translate(424 246) rotate(0 0.5 98.5)"><path d="M-7.85 173.62 C-2.91 182.09, -2.45 192.09, 1 197 M-7.85 173.62 C-4.51 180.72, -3.06 188.1, 1 197" stroke="#2f9e44" stroke-width="2" fill="none"></path></g><g transform="translate(424 246) rotate(0 0.5 98.5)"><path d="M9.25 173.4 C7.6 182.09, 1.46 192.17, 1 197 M9.25 173.4 C7.18 180.42, 3.21 187.87, 1 197" stroke="#2f9e44" stroke-width="2" fill="none"></path></g></g><mask></mask><g stroke-linecap="round"><g transform="translate(457 444) rotate(0 0 -99.5)"><path d="M0 0 C0.42 -68.74, 2.82 -136.13, 0 -199 M0 0 C0.23 -73.23, 1.01 -146.15, 0 -199" stroke="#2f9e44" stroke-width="2" fill="none"></path></g><g transform="translate(457 444) rotate(0 0 -99.5)"><path d="M8.77 -175.59 C4.68 -183.86, 4.06 -190.78, 0 -199 M8.77 -175.59 C5.65 -184.65, 3.22 -193.45, 0 -199" stroke="#2f9e44" stroke-width="2" fill="none"></path></g><g transform="translate(457 444) rotate(0 0 -99.5)"><path d="M-8.33 -175.43 C-6.53 -183.77, -1.26 -190.75, 0 -199 M-8.33 -175.43 C-5.21 -184.63, -1.39 -193.49, 0 -199" stroke="#2f9e44" stroke-width="2" fill="none"></path></g></g><mask></mask><g stroke-linecap="round"><g transform="translate(768 243) rotate(0 -0.5 98.5)"><path d="M0 0 C-1.1 59.47, -2.55 119.53, -1 197 M0 0 C0.61 58.51, 0.73 114.72, -1 197" stroke="#2f9e44" stroke-width="2" fill="none"></path></g><g transform="translate(768 243) rotate(0 -0.5 98.5)"><path d="M-9.17 173.37 C-6.49 179.77, -5.13 186.74, -1 197 M-9.17 173.37 C-7.15 181.06, -4.34 186.35, -1 197" stroke="#2f9e44" stroke-width="2" fill="none"></path></g><g transform="translate(768 243) rotate(0 -0.5 98.5)"><path d="M7.93 173.65 C5.38 179.94, 1.5 186.82, -1 197 M7.93 173.65 C4.92 181.08, 2.72 186.3, -1 197" stroke="#2f9e44" stroke-width="2" fill="none"></path></g></g><mask></mask><g stroke-linecap="round"><g transform="translate(809 438) rotate(0 1 -96)"><path d="M0 0 C-2.29 -69.2, 0.85 -140.2, 2 -192 M0 0 C0.12 -39.39, 1.88 -78.63, 2 -192" stroke="#2f9e44" stroke-width="2" fill="none"></path></g><g transform="translate(809 438) rotate(0 1 -96)"><path d="M10.42 -168.46 C5.82 -175.98, 5.15 -185.4, 2 -192 M10.42 -168.46 C7.84 -173.52, 7.47 -178.44, 2 -192" stroke="#2f9e44" stroke-width="2" fill="none"></path></g><g transform="translate(809 438) rotate(0 1 -96)"><path d="M-6.68 -168.56 C-5.03 -176.19, 0.56 -185.58, 2 -192 M-6.68 -168.56 C-5.78 -173.62, -2.66 -178.52, 2 -192" stroke="#2f9e44" stroke-width="2" fill="none"></path></g></g><mask></mask><g stroke-linecap="round"><g transform="translate(1137 246) rotate(0 -0.5 98)"><path d="M0 0 C-2.44 60.07, 0.68 122.91, -1 196 M0 0 C1.63 48.32, 0.94 96.66, -1 196" stroke="#2f9e44" stroke-width="2" fill="none"></path></g><g transform="translate(1137 246) rotate(0 -0.5 98)"><path d="M-9.13 172.36 C-8.32 178.99, -2.37 188.41, -1 196 M-9.13 172.36 C-6.63 177.84, -5.04 183.27, -1 196" stroke="#2f9e44" stroke-width="2" fill="none"></path></g><g transform="translate(1137 246) rotate(0 -0.5 98)"><path d="M7.97 172.66 C3.48 179.24, 4.13 188.56, -1 196 M7.97 172.66 C6.21 177.91, 3.54 183.27, -1 196" stroke="#2f9e44" stroke-width="2" fill="none"></path></g></g><mask></mask><g stroke-linecap="round"><g transform="translate(1170 439) rotate(0 -0.5 -96.5)"><path d="M0 0 C-0.37 -39.63, 1.19 -79.62, -1 -193 M0 0 C-0.06 -75.82, 0.47 -149.54, -1 -193" stroke="#2f9e44" stroke-width="2" fill="none"></path></g><g transform="translate(1170 439) rotate(0 -0.5 -96.5)"><path d="M7.98 -169.67 C5.98 -174.56, 5.91 -179.89, -1 -193 M7.98 -169.67 C4.56 -179.77, 1.99 -187.7, -1 -193" stroke="#2f9e44" stroke-width="2" fill="none"></path></g><g transform="translate(1170 439) rotate(0 -0.5 -96.5)"><path d="M-9.12 -169.36 C-7.63 -174.47, -4.21 -179.86, -1 -193 M-9.12 -169.36 C-5.91 -179.41, -1.85 -187.46, -1 -193" stroke="#2f9e44" stroke-width="2" fill="none"></path></g></g><mask></mask><g stroke-linecap="round"><g transform="translate(891 248) rotate(0 -30 120.5)"><path d="M0 0 C-1.4 76.61, 0.77 152.2, 3 241 M0 0 C0.8 67.93, 1.07 137.13, 3 241 M3 241 C-18.48 240.5, -40.01 241.96, -63 241 M3 241 C-16.51 240.08, -35.31 239.52, -63 241" stroke="#e03131" stroke-width="2" fill="none"></path></g><g transform="translate(891 248) rotate(0 -30 120.5)"><path d="M-39.83 231.6 C-48.74 234.67, -54.61 236.63, -63 241 M-39.83 231.6 C-45.72 233.62, -52.97 237.4, -63 241" stroke="#e03131" stroke-width="2" fill="none"></path></g><g transform="translate(891 248) rotate(0 -30 120.5)"><path d="M-39.21 248.69 C-48.22 246.33, -54.29 242.88, -63 241 M-39.21 248.69 C-45.22 245.86, -52.65 244.8, -63 241" stroke="#e03131" stroke-width="2" fill="none"></path></g></g><mask></mask><g stroke-linecap="round"><g transform="translate(550 242) rotate(0 -32.5 122.5)"><path d="M0 0 C1.41 77.12, 2.76 155.66, 1 245 M0 0 C1.68 65.66, 2.53 131.4, 1 245 M1 245 C-16.44 244.35, -31.17 245.36, -66 245 M1 245 C-15.06 245.94, -29.11 245.67, -66 245" stroke="#e03131" stroke-width="2" fill="none"></path></g><g transform="translate(550 242) rotate(0 -32.5 122.5)"><path d="M-42.37 236.85 C-50.85 238.38, -57.11 241.82, -66 245 M-42.37 236.85 C-49.05 238.83, -54.7 240.83, -66 245" stroke="#e03131" stroke-width="2" fill="none"></path></g><g transform="translate(550 242) rotate(0 -32.5 122.5)"><path d="M-42.66 253.95 C-51.21 250.05, -57.38 248.05, -66 245 M-42.66 253.95 C-49.41 251.33, -54.99 248.73, -66 245" stroke="#e03131" stroke-width="2" fill="none"></path></g></g><mask></mask><g stroke-linecap="round"><g transform="translate(233 242) rotate(0 -35.50185218071991 120.01665340717454)"><path d="M0 0 C2.13 76.58, 4.36 155.74, 3 239 M0 0 C1.33 91.1, 2.18 183.03, 3 239 M3 239 C-20.78 237.96, -44.76 238.41, -74 240.03 M3 239 C-15.33 239.99, -32.13 239.01, -74 240.03" stroke="#e03131" stroke-width="2" fill="none"></path></g><g transform="translate(233 242) rotate(0 -35.50185218071991 120.01665340717454)"><path d="M-50.64 231.12 C-57.75 232.99, -63.8 238.11, -74 240.03 M-50.64 231.12 C-59.87 233.83, -69.2 237.36, -74 240.03" stroke="#e03131" stroke-width="2" fill="none"></path></g><g transform="translate(233 242) rotate(0 -35.50185218071991 120.01665340717454)"><path d="M-50.38 248.22 C-57.65 244.55, -63.78 244.15, -74 240.03 M-50.38 248.22 C-59.74 244.36, -69.17 241.32, -74 240.03" stroke="#e03131" stroke-width="2" fill="none"></path></g></g><mask></mask><g transform="translate(20 256) rotate(0 35.150001525878906 24)"><text x="0" y="19.3125" font-family="Cascadia, Segoe UI Emoji" font-size="20px" fill="#2f9e44" text-anchor="start" style="white-space: pre;" direction="ltr" dominant-baseline="alphabetic">Criar</text><text x="0" y="43.3125" font-family="Cascadia, Segoe UI Emoji" font-size="20px" fill="#2f9e44" text-anchor="start" style="white-space: pre;" direction="ltr" dominant-baseline="alphabetic">pedido</text></g><g transform="translate(333 254) rotate(0 41.00833511352539 24)"><text x="0" y="19.3125" font-family="Cascadia, Segoe UI Emoji" font-size="20px" fill="#2f9e44" text-anchor="start" style="white-space: pre;" direction="ltr" dominant-baseline="alphabetic">Separar</text><text x="0" y="43.3125" font-family="Cascadia, Segoe UI Emoji" font-size="20px" fill="#2f9e44" text-anchor="start" style="white-space: pre;" direction="ltr" dominant-baseline="alphabetic">produto</text></g><g transform="translate(665 252) rotate(0 46.86666488647461 24)"><text x="0" y="19.3125" font-family="Cascadia, Segoe UI Emoji" font-size="20px" fill="#2f9e44" text-anchor="start" style="white-space: pre;" direction="ltr" dominant-baseline="alphabetic">Efetivar</text><text x="0" y="43.3125" font-family="Cascadia, Segoe UI Emoji" font-size="20px" fill="#2f9e44" text-anchor="start" style="white-space: pre;" direction="ltr" dominant-baseline="alphabetic">cobrança</text></g><g transform="translate(1046 253) rotate(0 41.00833511352539 24)"><text x="0" y="19.3125" font-family="Cascadia, Segoe UI Emoji" font-size="20px" fill="#2f9e44" text-anchor="start" style="white-space: pre;" direction="ltr" dominant-baseline="alphabetic">Iniciar</text><text x="0" y="43.3125" font-family="Cascadia, Segoe UI Emoji" font-size="20px" fill="#2f9e44" text-anchor="start" style="white-space: pre;" direction="ltr" dominant-baseline="alphabetic">entrega</text></g><g transform="translate(903 326) rotate(0 46.86666488647461 24)"><text x="0" y="19.3125" font-family="Cascadia, Segoe UI Emoji" font-size="20px" fill="#e03131" text-anchor="start" style="white-space: pre;" direction="ltr" dominant-baseline="alphabetic">Devolver</text><text x="0" y="43.3125" font-family="Cascadia, Segoe UI Emoji" font-size="20px" fill="#e03131" text-anchor="start" style="white-space: pre;" direction="ltr" dominant-baseline="alphabetic">dinheiro</text></g><g transform="translate(560 326) rotate(0 46.86666488647461 24)"><text x="0" y="19.3125" font-family="Cascadia, Segoe UI Emoji" font-size="20px" fill="#e03131" text-anchor="start" style="white-space: pre;" direction="ltr" dominant-baseline="alphabetic">Devolver</text><text x="0" y="43.3125" font-family="Cascadia, Segoe UI Emoji" font-size="20px" fill="#e03131" text-anchor="start" style="white-space: pre;" direction="ltr" dominant-baseline="alphabetic">produto</text></g><g transform="translate(244 326) rotate(0 46.86666488647461 24)"><text x="0" y="19.3125" font-family="Cascadia, Segoe UI Emoji" font-size="20px" fill="#e03131" text-anchor="start" style="white-space: pre;" direction="ltr" dominant-baseline="alphabetic">Cancelar</text><text x="0" y="43.3125" font-family="Cascadia, Segoe UI Emoji" font-size="20px" fill="#e03131" text-anchor="start" style="white-space: pre;" direction="ltr" dominant-baseline="alphabetic">pedido</text></g></svg>